<mxfile host="app.diagrams.net" modified="2024-04-06T07:27:23.696Z" agent="Mozilla/5.0 (Macintosh; Intel Mac OS X 10_15_7) AppleWebKit/537.36 (KHTML, like Gecko) Chrome/123.0.0.0 Safari/537.36" etag="Oz1wKfU8F2Tgy3_Qwl01" version="24.0.4" type="device">
  <diagram name="Page-1" id="e56a1550-8fbb-45ad-956c-1786394a9013">
    <mxGraphModel dx="1735" dy="945" grid="0" gridSize="10" guides="1" tooltips="1" connect="1" arrows="1" fold="1" page="1" pageScale="1" pageWidth="1100" pageHeight="850" background="none" math="0" shadow="0">
      <root>
        <mxCell id="0" />
        <mxCell id="1" parent="0" />
        <mxCell id="Hp7_mJl83ue9tpAKIguK-44" value="Рецидивисты, статьи УК, отсидки" style="text;html=1;align=center;verticalAlign=middle;whiteSpace=wrap;rounded=0;fillColor=#e1d5e7;strokeColor=#9673a6;" parent="1" vertex="1">
          <mxGeometry x="688" y="86" width="202" height="30" as="geometry" />
        </mxCell>
        <mxCell id="Hp7_mJl83ue9tpAKIguK-137" value="Сотрудники, выполненные проекты, участие в проектах" style="text;html=1;align=center;verticalAlign=middle;whiteSpace=wrap;rounded=0;fillColor=#e1d5e7;strokeColor=#9673a6;" parent="1" vertex="1">
          <mxGeometry x="2474" y="82" width="477" height="30" as="geometry" />
        </mxCell>
        <mxCell id="Hp7_mJl83ue9tpAKIguK-232" value="Выполненный проект" style="shape=table;startSize=30;container=1;collapsible=1;childLayout=tableLayout;fixedRows=1;rowLines=0;fontStyle=1;align=center;resizeLast=1;html=1;fillColor=#fad9d5;strokeColor=#ae4132;" parent="1" vertex="1">
          <mxGeometry x="2802" y="432" width="248" height="180" as="geometry" />
        </mxCell>
        <mxCell id="Hp7_mJl83ue9tpAKIguK-233" value="" style="shape=tableRow;horizontal=0;startSize=0;swimlaneHead=0;swimlaneBody=0;fillColor=none;collapsible=0;dropTarget=0;points=[[0,0.5],[1,0.5]];portConstraint=eastwest;top=0;left=0;right=0;bottom=1;" parent="Hp7_mJl83ue9tpAKIguK-232" vertex="1">
          <mxGeometry y="30" width="248" height="30" as="geometry" />
        </mxCell>
        <mxCell id="Hp7_mJl83ue9tpAKIguK-234" value="FK" style="shape=partialRectangle;connectable=0;fillColor=none;top=0;left=0;bottom=0;right=0;fontStyle=1;overflow=hidden;whiteSpace=wrap;html=1;" parent="Hp7_mJl83ue9tpAKIguK-233" vertex="1">
          <mxGeometry width="30" height="30" as="geometry">
            <mxRectangle width="30" height="30" as="alternateBounds" />
          </mxGeometry>
        </mxCell>
        <mxCell id="Hp7_mJl83ue9tpAKIguK-235" value="id" style="shape=partialRectangle;connectable=0;fillColor=none;top=0;left=0;bottom=0;right=0;align=left;spacingLeft=6;fontStyle=5;overflow=hidden;whiteSpace=wrap;html=1;" parent="Hp7_mJl83ue9tpAKIguK-233" vertex="1">
          <mxGeometry x="30" width="150" height="30" as="geometry">
            <mxRectangle width="150" height="30" as="alternateBounds" />
          </mxGeometry>
        </mxCell>
        <mxCell id="Hp7_mJl83ue9tpAKIguK-236" value="int" style="shape=partialRectangle;connectable=0;fillColor=none;top=0;left=0;bottom=0;right=0;align=left;spacingLeft=6;fontStyle=5;overflow=hidden;whiteSpace=wrap;html=1;" parent="Hp7_mJl83ue9tpAKIguK-233" vertex="1">
          <mxGeometry x="180" width="68" height="30" as="geometry">
            <mxRectangle width="68" height="30" as="alternateBounds" />
          </mxGeometry>
        </mxCell>
        <mxCell id="Hp7_mJl83ue9tpAKIguK-241" value="" style="shape=tableRow;horizontal=0;startSize=0;swimlaneHead=0;swimlaneBody=0;fillColor=none;collapsible=0;dropTarget=0;points=[[0,0.5],[1,0.5]];portConstraint=eastwest;top=0;left=0;right=0;bottom=0;" parent="Hp7_mJl83ue9tpAKIguK-232" vertex="1">
          <mxGeometry y="60" width="248" height="30" as="geometry" />
        </mxCell>
        <mxCell id="Hp7_mJl83ue9tpAKIguK-242" value="" style="shape=partialRectangle;connectable=0;fillColor=none;top=0;left=0;bottom=0;right=0;editable=1;overflow=hidden;whiteSpace=wrap;html=1;" parent="Hp7_mJl83ue9tpAKIguK-241" vertex="1">
          <mxGeometry width="30" height="30" as="geometry">
            <mxRectangle width="30" height="30" as="alternateBounds" />
          </mxGeometry>
        </mxCell>
        <mxCell id="Hp7_mJl83ue9tpAKIguK-243" value="Дата начала" style="shape=partialRectangle;connectable=0;fillColor=none;top=0;left=0;bottom=0;right=0;align=left;spacingLeft=6;overflow=hidden;whiteSpace=wrap;html=1;" parent="Hp7_mJl83ue9tpAKIguK-241" vertex="1">
          <mxGeometry x="30" width="150" height="30" as="geometry">
            <mxRectangle width="150" height="30" as="alternateBounds" />
          </mxGeometry>
        </mxCell>
        <mxCell id="Hp7_mJl83ue9tpAKIguK-244" value="date" style="shape=partialRectangle;connectable=0;fillColor=none;top=0;left=0;bottom=0;right=0;align=left;spacingLeft=6;overflow=hidden;whiteSpace=wrap;html=1;" parent="Hp7_mJl83ue9tpAKIguK-241" vertex="1">
          <mxGeometry x="180" width="68" height="30" as="geometry">
            <mxRectangle width="68" height="30" as="alternateBounds" />
          </mxGeometry>
        </mxCell>
        <mxCell id="Hp7_mJl83ue9tpAKIguK-245" value="" style="shape=tableRow;horizontal=0;startSize=0;swimlaneHead=0;swimlaneBody=0;fillColor=none;collapsible=0;dropTarget=0;points=[[0,0.5],[1,0.5]];portConstraint=eastwest;top=0;left=0;right=0;bottom=0;" parent="Hp7_mJl83ue9tpAKIguK-232" vertex="1">
          <mxGeometry y="90" width="248" height="30" as="geometry" />
        </mxCell>
        <mxCell id="Hp7_mJl83ue9tpAKIguK-246" value="" style="shape=partialRectangle;connectable=0;fillColor=none;top=0;left=0;bottom=0;right=0;editable=1;overflow=hidden;whiteSpace=wrap;html=1;" parent="Hp7_mJl83ue9tpAKIguK-245" vertex="1">
          <mxGeometry width="30" height="30" as="geometry">
            <mxRectangle width="30" height="30" as="alternateBounds" />
          </mxGeometry>
        </mxCell>
        <mxCell id="Hp7_mJl83ue9tpAKIguK-247" value="Дата окончания" style="shape=partialRectangle;connectable=0;fillColor=none;top=0;left=0;bottom=0;right=0;align=left;spacingLeft=6;overflow=hidden;whiteSpace=wrap;html=1;" parent="Hp7_mJl83ue9tpAKIguK-245" vertex="1">
          <mxGeometry x="30" width="150" height="30" as="geometry">
            <mxRectangle width="150" height="30" as="alternateBounds" />
          </mxGeometry>
        </mxCell>
        <mxCell id="Hp7_mJl83ue9tpAKIguK-248" value="date" style="shape=partialRectangle;connectable=0;fillColor=none;top=0;left=0;bottom=0;right=0;align=left;spacingLeft=6;overflow=hidden;whiteSpace=wrap;html=1;" parent="Hp7_mJl83ue9tpAKIguK-245" vertex="1">
          <mxGeometry x="180" width="68" height="30" as="geometry">
            <mxRectangle width="68" height="30" as="alternateBounds" />
          </mxGeometry>
        </mxCell>
        <mxCell id="Hp7_mJl83ue9tpAKIguK-356" style="shape=tableRow;horizontal=0;startSize=0;swimlaneHead=0;swimlaneBody=0;fillColor=none;collapsible=0;dropTarget=0;points=[[0,0.5],[1,0.5]];portConstraint=eastwest;top=0;left=0;right=0;bottom=0;" parent="Hp7_mJl83ue9tpAKIguK-232" vertex="1">
          <mxGeometry y="120" width="248" height="30" as="geometry" />
        </mxCell>
        <mxCell id="Hp7_mJl83ue9tpAKIguK-357" style="shape=partialRectangle;connectable=0;fillColor=none;top=0;left=0;bottom=0;right=0;editable=1;overflow=hidden;whiteSpace=wrap;html=1;" parent="Hp7_mJl83ue9tpAKIguK-356" vertex="1">
          <mxGeometry width="30" height="30" as="geometry">
            <mxRectangle width="30" height="30" as="alternateBounds" />
          </mxGeometry>
        </mxCell>
        <mxCell id="Hp7_mJl83ue9tpAKIguK-358" value="Прибыль" style="shape=partialRectangle;connectable=0;fillColor=none;top=0;left=0;bottom=0;right=0;align=left;spacingLeft=6;overflow=hidden;whiteSpace=wrap;html=1;" parent="Hp7_mJl83ue9tpAKIguK-356" vertex="1">
          <mxGeometry x="30" width="150" height="30" as="geometry">
            <mxRectangle width="150" height="30" as="alternateBounds" />
          </mxGeometry>
        </mxCell>
        <mxCell id="Hp7_mJl83ue9tpAKIguK-359" value="money" style="shape=partialRectangle;connectable=0;fillColor=none;top=0;left=0;bottom=0;right=0;align=left;spacingLeft=6;overflow=hidden;whiteSpace=wrap;html=1;" parent="Hp7_mJl83ue9tpAKIguK-356" vertex="1">
          <mxGeometry x="180" width="68" height="30" as="geometry">
            <mxRectangle width="68" height="30" as="alternateBounds" />
          </mxGeometry>
        </mxCell>
        <mxCell id="vAJnB2R6oV3PKbYn6d2F-5" style="shape=tableRow;horizontal=0;startSize=0;swimlaneHead=0;swimlaneBody=0;fillColor=none;collapsible=0;dropTarget=0;points=[[0,0.5],[1,0.5]];portConstraint=eastwest;top=0;left=0;right=0;bottom=0;" parent="Hp7_mJl83ue9tpAKIguK-232" vertex="1">
          <mxGeometry y="150" width="248" height="30" as="geometry" />
        </mxCell>
        <mxCell id="vAJnB2R6oV3PKbYn6d2F-6" style="shape=partialRectangle;connectable=0;fillColor=none;top=0;left=0;bottom=0;right=0;editable=1;overflow=hidden;whiteSpace=wrap;html=1;" parent="vAJnB2R6oV3PKbYn6d2F-5" vertex="1">
          <mxGeometry width="30" height="30" as="geometry">
            <mxRectangle width="30" height="30" as="alternateBounds" />
          </mxGeometry>
        </mxCell>
        <mxCell id="vAJnB2R6oV3PKbYn6d2F-7" value="Затраты" style="shape=partialRectangle;connectable=0;fillColor=none;top=0;left=0;bottom=0;right=0;align=left;spacingLeft=6;overflow=hidden;whiteSpace=wrap;html=1;" parent="vAJnB2R6oV3PKbYn6d2F-5" vertex="1">
          <mxGeometry x="30" width="150" height="30" as="geometry">
            <mxRectangle width="150" height="30" as="alternateBounds" />
          </mxGeometry>
        </mxCell>
        <mxCell id="vAJnB2R6oV3PKbYn6d2F-8" value="money" style="shape=partialRectangle;connectable=0;fillColor=none;top=0;left=0;bottom=0;right=0;align=left;spacingLeft=6;overflow=hidden;whiteSpace=wrap;html=1;" parent="vAJnB2R6oV3PKbYn6d2F-5" vertex="1">
          <mxGeometry x="180" width="68" height="30" as="geometry">
            <mxRectangle width="68" height="30" as="alternateBounds" />
          </mxGeometry>
        </mxCell>
        <mxCell id="Hp7_mJl83ue9tpAKIguK-253" value="Сотрудник" style="shape=table;startSize=30;container=1;collapsible=1;childLayout=tableLayout;fixedRows=1;rowLines=0;fontStyle=1;align=center;resizeLast=1;html=1;fillColor=#fad9d5;strokeColor=#ae4132;" parent="1" vertex="1">
          <mxGeometry x="2369" y="202" width="242" height="239.21428571428584" as="geometry" />
        </mxCell>
        <mxCell id="Hp7_mJl83ue9tpAKIguK-254" value="" style="shape=tableRow;horizontal=0;startSize=0;swimlaneHead=0;swimlaneBody=0;fillColor=none;collapsible=0;dropTarget=0;points=[[0,0.5],[1,0.5]];portConstraint=eastwest;top=0;left=0;right=0;bottom=1;" parent="Hp7_mJl83ue9tpAKIguK-253" vertex="1">
          <mxGeometry y="30" width="242" height="30" as="geometry" />
        </mxCell>
        <mxCell id="Hp7_mJl83ue9tpAKIguK-255" value="PK" style="shape=partialRectangle;connectable=0;fillColor=none;top=0;left=0;bottom=0;right=0;fontStyle=1;overflow=hidden;whiteSpace=wrap;html=1;" parent="Hp7_mJl83ue9tpAKIguK-254" vertex="1">
          <mxGeometry width="30" height="30" as="geometry">
            <mxRectangle width="30" height="30" as="alternateBounds" />
          </mxGeometry>
        </mxCell>
        <mxCell id="Hp7_mJl83ue9tpAKIguK-256" value="id" style="shape=partialRectangle;connectable=0;fillColor=none;top=0;left=0;bottom=0;right=0;align=left;spacingLeft=6;fontStyle=5;overflow=hidden;whiteSpace=wrap;html=1;" parent="Hp7_mJl83ue9tpAKIguK-254" vertex="1">
          <mxGeometry x="30" width="105.14285714285705" height="30" as="geometry">
            <mxRectangle width="105.14285714285705" height="30" as="alternateBounds" />
          </mxGeometry>
        </mxCell>
        <mxCell id="Hp7_mJl83ue9tpAKIguK-257" value="int" style="shape=partialRectangle;connectable=0;fillColor=none;top=0;left=0;bottom=0;right=0;align=left;spacingLeft=6;fontStyle=5;overflow=hidden;whiteSpace=wrap;html=1;" parent="Hp7_mJl83ue9tpAKIguK-254" vertex="1">
          <mxGeometry x="135.14285714285705" width="106.85714285714295" height="30" as="geometry">
            <mxRectangle width="106.85714285714295" height="30" as="alternateBounds" />
          </mxGeometry>
        </mxCell>
        <mxCell id="Hp7_mJl83ue9tpAKIguK-258" value="" style="shape=tableRow;horizontal=0;startSize=0;swimlaneHead=0;swimlaneBody=0;fillColor=none;collapsible=0;dropTarget=0;points=[[0,0.5],[1,0.5]];portConstraint=eastwest;top=0;left=0;right=0;bottom=0;" parent="Hp7_mJl83ue9tpAKIguK-253" vertex="1">
          <mxGeometry y="60" width="242" height="30" as="geometry" />
        </mxCell>
        <mxCell id="Hp7_mJl83ue9tpAKIguK-259" value="" style="shape=partialRectangle;connectable=0;fillColor=none;top=0;left=0;bottom=0;right=0;editable=1;overflow=hidden;whiteSpace=wrap;html=1;" parent="Hp7_mJl83ue9tpAKIguK-258" vertex="1">
          <mxGeometry width="30" height="30" as="geometry">
            <mxRectangle width="30" height="30" as="alternateBounds" />
          </mxGeometry>
        </mxCell>
        <mxCell id="Hp7_mJl83ue9tpAKIguK-260" value="ФИО" style="shape=partialRectangle;connectable=0;fillColor=none;top=0;left=0;bottom=0;right=0;align=left;spacingLeft=6;overflow=hidden;whiteSpace=wrap;html=1;" parent="Hp7_mJl83ue9tpAKIguK-258" vertex="1">
          <mxGeometry x="30" width="105.14285714285705" height="30" as="geometry">
            <mxRectangle width="105.14285714285705" height="30" as="alternateBounds" />
          </mxGeometry>
        </mxCell>
        <mxCell id="Hp7_mJl83ue9tpAKIguK-261" value="string" style="shape=partialRectangle;connectable=0;fillColor=none;top=0;left=0;bottom=0;right=0;align=left;spacingLeft=6;overflow=hidden;whiteSpace=wrap;html=1;" parent="Hp7_mJl83ue9tpAKIguK-258" vertex="1">
          <mxGeometry x="135.14285714285705" width="106.85714285714295" height="30" as="geometry">
            <mxRectangle width="106.85714285714295" height="30" as="alternateBounds" />
          </mxGeometry>
        </mxCell>
        <mxCell id="Hp7_mJl83ue9tpAKIguK-262" value="" style="shape=tableRow;horizontal=0;startSize=0;swimlaneHead=0;swimlaneBody=0;fillColor=none;collapsible=0;dropTarget=0;points=[[0,0.5],[1,0.5]];portConstraint=eastwest;top=0;left=0;right=0;bottom=0;" parent="Hp7_mJl83ue9tpAKIguK-253" vertex="1">
          <mxGeometry y="90" width="242" height="30" as="geometry" />
        </mxCell>
        <mxCell id="Hp7_mJl83ue9tpAKIguK-263" value="" style="shape=partialRectangle;connectable=0;fillColor=none;top=0;left=0;bottom=0;right=0;editable=1;overflow=hidden;whiteSpace=wrap;html=1;" parent="Hp7_mJl83ue9tpAKIguK-262" vertex="1">
          <mxGeometry width="30" height="30" as="geometry">
            <mxRectangle width="30" height="30" as="alternateBounds" />
          </mxGeometry>
        </mxCell>
        <mxCell id="Hp7_mJl83ue9tpAKIguK-264" value="Дата рождения" style="shape=partialRectangle;connectable=0;fillColor=none;top=0;left=0;bottom=0;right=0;align=left;spacingLeft=6;overflow=hidden;whiteSpace=wrap;html=1;" parent="Hp7_mJl83ue9tpAKIguK-262" vertex="1">
          <mxGeometry x="30" width="105.14285714285705" height="30" as="geometry">
            <mxRectangle width="105.14285714285705" height="30" as="alternateBounds" />
          </mxGeometry>
        </mxCell>
        <mxCell id="Hp7_mJl83ue9tpAKIguK-265" value="date" style="shape=partialRectangle;connectable=0;fillColor=none;top=0;left=0;bottom=0;right=0;align=left;spacingLeft=6;overflow=hidden;whiteSpace=wrap;html=1;" parent="Hp7_mJl83ue9tpAKIguK-262" vertex="1">
          <mxGeometry x="135.14285714285705" width="106.85714285714295" height="30" as="geometry">
            <mxRectangle width="106.85714285714295" height="30" as="alternateBounds" />
          </mxGeometry>
        </mxCell>
        <mxCell id="Hp7_mJl83ue9tpAKIguK-266" value="" style="shape=tableRow;horizontal=0;startSize=0;swimlaneHead=0;swimlaneBody=0;fillColor=none;collapsible=0;dropTarget=0;points=[[0,0.5],[1,0.5]];portConstraint=eastwest;top=0;left=0;right=0;bottom=0;" parent="Hp7_mJl83ue9tpAKIguK-253" vertex="1">
          <mxGeometry y="120" width="242" height="30" as="geometry" />
        </mxCell>
        <mxCell id="Hp7_mJl83ue9tpAKIguK-267" value="FK" style="shape=partialRectangle;connectable=0;fillColor=none;top=0;left=0;bottom=0;right=0;editable=1;overflow=hidden;whiteSpace=wrap;html=1;" parent="Hp7_mJl83ue9tpAKIguK-266" vertex="1">
          <mxGeometry width="30" height="30" as="geometry">
            <mxRectangle width="30" height="30" as="alternateBounds" />
          </mxGeometry>
        </mxCell>
        <mxCell id="Hp7_mJl83ue9tpAKIguK-268" value="id отдела" style="shape=partialRectangle;connectable=0;fillColor=none;top=0;left=0;bottom=0;right=0;align=left;spacingLeft=6;overflow=hidden;whiteSpace=wrap;html=1;" parent="Hp7_mJl83ue9tpAKIguK-266" vertex="1">
          <mxGeometry x="30" width="105.14285714285705" height="30" as="geometry">
            <mxRectangle width="105.14285714285705" height="30" as="alternateBounds" />
          </mxGeometry>
        </mxCell>
        <mxCell id="Hp7_mJl83ue9tpAKIguK-269" value="int" style="shape=partialRectangle;connectable=0;fillColor=none;top=0;left=0;bottom=0;right=0;align=left;spacingLeft=6;overflow=hidden;whiteSpace=wrap;html=1;" parent="Hp7_mJl83ue9tpAKIguK-266" vertex="1">
          <mxGeometry x="135.14285714285705" width="106.85714285714295" height="30" as="geometry">
            <mxRectangle width="106.85714285714295" height="30" as="alternateBounds" />
          </mxGeometry>
        </mxCell>
        <mxCell id="Hp7_mJl83ue9tpAKIguK-326" style="shape=tableRow;horizontal=0;startSize=0;swimlaneHead=0;swimlaneBody=0;fillColor=none;collapsible=0;dropTarget=0;points=[[0,0.5],[1,0.5]];portConstraint=eastwest;top=0;left=0;right=0;bottom=0;" parent="Hp7_mJl83ue9tpAKIguK-253" vertex="1">
          <mxGeometry y="150" width="242" height="30" as="geometry" />
        </mxCell>
        <mxCell id="Hp7_mJl83ue9tpAKIguK-327" value="FK" style="shape=partialRectangle;connectable=0;fillColor=none;top=0;left=0;bottom=0;right=0;editable=1;overflow=hidden;whiteSpace=wrap;html=1;" parent="Hp7_mJl83ue9tpAKIguK-326" vertex="1">
          <mxGeometry width="30" height="30" as="geometry">
            <mxRectangle width="30" height="30" as="alternateBounds" />
          </mxGeometry>
        </mxCell>
        <mxCell id="Hp7_mJl83ue9tpAKIguK-328" value="id должности" style="shape=partialRectangle;connectable=0;fillColor=none;top=0;left=0;bottom=0;right=0;align=left;spacingLeft=6;overflow=hidden;whiteSpace=wrap;html=1;" parent="Hp7_mJl83ue9tpAKIguK-326" vertex="1">
          <mxGeometry x="30" width="105.14285714285705" height="30" as="geometry">
            <mxRectangle width="105.14285714285705" height="30" as="alternateBounds" />
          </mxGeometry>
        </mxCell>
        <mxCell id="Hp7_mJl83ue9tpAKIguK-329" value="int" style="shape=partialRectangle;connectable=0;fillColor=none;top=0;left=0;bottom=0;right=0;align=left;spacingLeft=6;overflow=hidden;whiteSpace=wrap;html=1;" parent="Hp7_mJl83ue9tpAKIguK-326" vertex="1">
          <mxGeometry x="135.14285714285705" width="106.85714285714295" height="30" as="geometry">
            <mxRectangle width="106.85714285714295" height="30" as="alternateBounds" />
          </mxGeometry>
        </mxCell>
        <mxCell id="Wdy_xFRBNVWLUyz9GwH2-34" style="shape=tableRow;horizontal=0;startSize=0;swimlaneHead=0;swimlaneBody=0;fillColor=none;collapsible=0;dropTarget=0;points=[[0,0.5],[1,0.5]];portConstraint=eastwest;top=0;left=0;right=0;bottom=0;" parent="Hp7_mJl83ue9tpAKIguK-253" vertex="1">
          <mxGeometry y="180" width="242" height="29" as="geometry" />
        </mxCell>
        <mxCell id="Wdy_xFRBNVWLUyz9GwH2-35" style="shape=partialRectangle;connectable=0;fillColor=none;top=0;left=0;bottom=0;right=0;editable=1;overflow=hidden;whiteSpace=wrap;html=1;" parent="Wdy_xFRBNVWLUyz9GwH2-34" vertex="1">
          <mxGeometry width="30" height="29" as="geometry">
            <mxRectangle width="30" height="29" as="alternateBounds" />
          </mxGeometry>
        </mxCell>
        <mxCell id="Wdy_xFRBNVWLUyz9GwH2-36" value="Пол" style="shape=partialRectangle;connectable=0;fillColor=none;top=0;left=0;bottom=0;right=0;align=left;spacingLeft=6;overflow=hidden;whiteSpace=wrap;html=1;" parent="Wdy_xFRBNVWLUyz9GwH2-34" vertex="1">
          <mxGeometry x="30" width="105.14285714285705" height="29" as="geometry">
            <mxRectangle width="105.14285714285705" height="29" as="alternateBounds" />
          </mxGeometry>
        </mxCell>
        <mxCell id="Wdy_xFRBNVWLUyz9GwH2-37" value="enum" style="shape=partialRectangle;connectable=0;fillColor=none;top=0;left=0;bottom=0;right=0;align=left;spacingLeft=6;overflow=hidden;whiteSpace=wrap;html=1;" parent="Wdy_xFRBNVWLUyz9GwH2-34" vertex="1">
          <mxGeometry x="135.14285714285705" width="106.85714285714295" height="29" as="geometry">
            <mxRectangle width="106.85714285714295" height="29" as="alternateBounds" />
          </mxGeometry>
        </mxCell>
        <mxCell id="Wdy_xFRBNVWLUyz9GwH2-38" style="shape=tableRow;horizontal=0;startSize=0;swimlaneHead=0;swimlaneBody=0;fillColor=none;collapsible=0;dropTarget=0;points=[[0,0.5],[1,0.5]];portConstraint=eastwest;top=0;left=0;right=0;bottom=0;" parent="Hp7_mJl83ue9tpAKIguK-253" vertex="1">
          <mxGeometry y="209" width="242" height="30" as="geometry" />
        </mxCell>
        <mxCell id="Wdy_xFRBNVWLUyz9GwH2-39" style="shape=partialRectangle;connectable=0;fillColor=none;top=0;left=0;bottom=0;right=0;editable=1;overflow=hidden;whiteSpace=wrap;html=1;" parent="Wdy_xFRBNVWLUyz9GwH2-38" vertex="1">
          <mxGeometry width="30" height="30" as="geometry">
            <mxRectangle width="30" height="30" as="alternateBounds" />
          </mxGeometry>
        </mxCell>
        <mxCell id="Wdy_xFRBNVWLUyz9GwH2-40" value="Статус" style="shape=partialRectangle;connectable=0;fillColor=none;top=0;left=0;bottom=0;right=0;align=left;spacingLeft=6;overflow=hidden;whiteSpace=wrap;html=1;" parent="Wdy_xFRBNVWLUyz9GwH2-38" vertex="1">
          <mxGeometry x="30" width="105.14285714285705" height="30" as="geometry">
            <mxRectangle width="105.14285714285705" height="30" as="alternateBounds" />
          </mxGeometry>
        </mxCell>
        <mxCell id="Wdy_xFRBNVWLUyz9GwH2-41" value="enum" style="shape=partialRectangle;connectable=0;fillColor=none;top=0;left=0;bottom=0;right=0;align=left;spacingLeft=6;overflow=hidden;whiteSpace=wrap;html=1;" parent="Wdy_xFRBNVWLUyz9GwH2-38" vertex="1">
          <mxGeometry x="135.14285714285705" width="106.85714285714295" height="30" as="geometry">
            <mxRectangle width="106.85714285714295" height="30" as="alternateBounds" />
          </mxGeometry>
        </mxCell>
        <mxCell id="Hp7_mJl83ue9tpAKIguK-270" value="Клиент" style="shape=table;startSize=30;container=1;collapsible=1;childLayout=tableLayout;fixedRows=1;rowLines=0;fontStyle=1;align=center;resizeLast=1;html=1;fillColor=#fad9d5;strokeColor=#ae4132;" parent="1" vertex="1">
          <mxGeometry x="3071" y="202" width="266" height="216" as="geometry" />
        </mxCell>
        <mxCell id="Hp7_mJl83ue9tpAKIguK-271" value="" style="shape=tableRow;horizontal=0;startSize=0;swimlaneHead=0;swimlaneBody=0;fillColor=none;collapsible=0;dropTarget=0;points=[[0,0.5],[1,0.5]];portConstraint=eastwest;top=0;left=0;right=0;bottom=1;" parent="Hp7_mJl83ue9tpAKIguK-270" vertex="1">
          <mxGeometry y="30" width="266" height="36" as="geometry" />
        </mxCell>
        <mxCell id="Hp7_mJl83ue9tpAKIguK-272" value="PK" style="shape=partialRectangle;connectable=0;fillColor=none;top=0;left=0;bottom=0;right=0;fontStyle=1;overflow=hidden;whiteSpace=wrap;html=1;" parent="Hp7_mJl83ue9tpAKIguK-271" vertex="1">
          <mxGeometry width="30" height="36" as="geometry">
            <mxRectangle width="30" height="36" as="alternateBounds" />
          </mxGeometry>
        </mxCell>
        <mxCell id="Hp7_mJl83ue9tpAKIguK-273" value="id" style="shape=partialRectangle;connectable=0;fillColor=none;top=0;left=0;bottom=0;right=0;align=left;spacingLeft=6;fontStyle=5;overflow=hidden;whiteSpace=wrap;html=1;" parent="Hp7_mJl83ue9tpAKIguK-271" vertex="1">
          <mxGeometry x="30" width="150" height="36" as="geometry">
            <mxRectangle width="150" height="36" as="alternateBounds" />
          </mxGeometry>
        </mxCell>
        <mxCell id="Hp7_mJl83ue9tpAKIguK-274" value="int" style="shape=partialRectangle;connectable=0;fillColor=none;top=0;left=0;bottom=0;right=0;align=left;spacingLeft=6;fontStyle=5;overflow=hidden;whiteSpace=wrap;html=1;" parent="Hp7_mJl83ue9tpAKIguK-271" vertex="1">
          <mxGeometry x="180" width="86" height="36" as="geometry">
            <mxRectangle width="86" height="36" as="alternateBounds" />
          </mxGeometry>
        </mxCell>
        <mxCell id="Hp7_mJl83ue9tpAKIguK-275" value="" style="shape=tableRow;horizontal=0;startSize=0;swimlaneHead=0;swimlaneBody=0;fillColor=none;collapsible=0;dropTarget=0;points=[[0,0.5],[1,0.5]];portConstraint=eastwest;top=0;left=0;right=0;bottom=0;" parent="Hp7_mJl83ue9tpAKIguK-270" vertex="1">
          <mxGeometry y="66" width="266" height="30" as="geometry" />
        </mxCell>
        <mxCell id="Hp7_mJl83ue9tpAKIguK-276" value="" style="shape=partialRectangle;connectable=0;fillColor=none;top=0;left=0;bottom=0;right=0;editable=1;overflow=hidden;whiteSpace=wrap;html=1;" parent="Hp7_mJl83ue9tpAKIguK-275" vertex="1">
          <mxGeometry width="30" height="30" as="geometry">
            <mxRectangle width="30" height="30" as="alternateBounds" />
          </mxGeometry>
        </mxCell>
        <mxCell id="Hp7_mJl83ue9tpAKIguK-277" value="Название" style="shape=partialRectangle;connectable=0;fillColor=none;top=0;left=0;bottom=0;right=0;align=left;spacingLeft=6;overflow=hidden;whiteSpace=wrap;html=1;" parent="Hp7_mJl83ue9tpAKIguK-275" vertex="1">
          <mxGeometry x="30" width="150" height="30" as="geometry">
            <mxRectangle width="150" height="30" as="alternateBounds" />
          </mxGeometry>
        </mxCell>
        <mxCell id="Hp7_mJl83ue9tpAKIguK-278" value="string" style="shape=partialRectangle;connectable=0;fillColor=none;top=0;left=0;bottom=0;right=0;align=left;spacingLeft=6;overflow=hidden;whiteSpace=wrap;html=1;" parent="Hp7_mJl83ue9tpAKIguK-275" vertex="1">
          <mxGeometry x="180" width="86" height="30" as="geometry">
            <mxRectangle width="86" height="30" as="alternateBounds" />
          </mxGeometry>
        </mxCell>
        <mxCell id="Hp7_mJl83ue9tpAKIguK-279" value="" style="shape=tableRow;horizontal=0;startSize=0;swimlaneHead=0;swimlaneBody=0;fillColor=none;collapsible=0;dropTarget=0;points=[[0,0.5],[1,0.5]];portConstraint=eastwest;top=0;left=0;right=0;bottom=0;" parent="Hp7_mJl83ue9tpAKIguK-270" vertex="1">
          <mxGeometry y="96" width="266" height="30" as="geometry" />
        </mxCell>
        <mxCell id="Hp7_mJl83ue9tpAKIguK-280" value="" style="shape=partialRectangle;connectable=0;fillColor=none;top=0;left=0;bottom=0;right=0;editable=1;overflow=hidden;whiteSpace=wrap;html=1;" parent="Hp7_mJl83ue9tpAKIguK-279" vertex="1">
          <mxGeometry width="30" height="30" as="geometry">
            <mxRectangle width="30" height="30" as="alternateBounds" />
          </mxGeometry>
        </mxCell>
        <mxCell id="Hp7_mJl83ue9tpAKIguK-281" value="Номер телефона" style="shape=partialRectangle;connectable=0;fillColor=none;top=0;left=0;bottom=0;right=0;align=left;spacingLeft=6;overflow=hidden;whiteSpace=wrap;html=1;" parent="Hp7_mJl83ue9tpAKIguK-279" vertex="1">
          <mxGeometry x="30" width="150" height="30" as="geometry">
            <mxRectangle width="150" height="30" as="alternateBounds" />
          </mxGeometry>
        </mxCell>
        <mxCell id="Hp7_mJl83ue9tpAKIguK-282" value="string" style="shape=partialRectangle;connectable=0;fillColor=none;top=0;left=0;bottom=0;right=0;align=left;spacingLeft=6;overflow=hidden;whiteSpace=wrap;html=1;" parent="Hp7_mJl83ue9tpAKIguK-279" vertex="1">
          <mxGeometry x="180" width="86" height="30" as="geometry">
            <mxRectangle width="86" height="30" as="alternateBounds" />
          </mxGeometry>
        </mxCell>
        <mxCell id="Hp7_mJl83ue9tpAKIguK-361" style="shape=tableRow;horizontal=0;startSize=0;swimlaneHead=0;swimlaneBody=0;fillColor=none;collapsible=0;dropTarget=0;points=[[0,0.5],[1,0.5]];portConstraint=eastwest;top=0;left=0;right=0;bottom=0;" parent="Hp7_mJl83ue9tpAKIguK-270" vertex="1">
          <mxGeometry y="126" width="266" height="30" as="geometry" />
        </mxCell>
        <mxCell id="Hp7_mJl83ue9tpAKIguK-362" style="shape=partialRectangle;connectable=0;fillColor=none;top=0;left=0;bottom=0;right=0;editable=1;overflow=hidden;whiteSpace=wrap;html=1;" parent="Hp7_mJl83ue9tpAKIguK-361" vertex="1">
          <mxGeometry width="30" height="30" as="geometry">
            <mxRectangle width="30" height="30" as="alternateBounds" />
          </mxGeometry>
        </mxCell>
        <mxCell id="Hp7_mJl83ue9tpAKIguK-363" value="Адрес" style="shape=partialRectangle;connectable=0;fillColor=none;top=0;left=0;bottom=0;right=0;align=left;spacingLeft=6;overflow=hidden;whiteSpace=wrap;html=1;" parent="Hp7_mJl83ue9tpAKIguK-361" vertex="1">
          <mxGeometry x="30" width="150" height="30" as="geometry">
            <mxRectangle width="150" height="30" as="alternateBounds" />
          </mxGeometry>
        </mxCell>
        <mxCell id="Hp7_mJl83ue9tpAKIguK-364" value="string" style="shape=partialRectangle;connectable=0;fillColor=none;top=0;left=0;bottom=0;right=0;align=left;spacingLeft=6;overflow=hidden;whiteSpace=wrap;html=1;" parent="Hp7_mJl83ue9tpAKIguK-361" vertex="1">
          <mxGeometry x="180" width="86" height="30" as="geometry">
            <mxRectangle width="86" height="30" as="alternateBounds" />
          </mxGeometry>
        </mxCell>
        <mxCell id="vAJnB2R6oV3PKbYn6d2F-9" style="shape=tableRow;horizontal=0;startSize=0;swimlaneHead=0;swimlaneBody=0;fillColor=none;collapsible=0;dropTarget=0;points=[[0,0.5],[1,0.5]];portConstraint=eastwest;top=0;left=0;right=0;bottom=0;" parent="Hp7_mJl83ue9tpAKIguK-270" vertex="1">
          <mxGeometry y="156" width="266" height="30" as="geometry" />
        </mxCell>
        <mxCell id="vAJnB2R6oV3PKbYn6d2F-10" style="shape=partialRectangle;connectable=0;fillColor=none;top=0;left=0;bottom=0;right=0;editable=1;overflow=hidden;whiteSpace=wrap;html=1;" parent="vAJnB2R6oV3PKbYn6d2F-9" vertex="1">
          <mxGeometry width="30" height="30" as="geometry">
            <mxRectangle width="30" height="30" as="alternateBounds" />
          </mxGeometry>
        </mxCell>
        <mxCell id="vAJnB2R6oV3PKbYn6d2F-11" value="Email" style="shape=partialRectangle;connectable=0;fillColor=none;top=0;left=0;bottom=0;right=0;align=left;spacingLeft=6;overflow=hidden;whiteSpace=wrap;html=1;" parent="vAJnB2R6oV3PKbYn6d2F-9" vertex="1">
          <mxGeometry x="30" width="150" height="30" as="geometry">
            <mxRectangle width="150" height="30" as="alternateBounds" />
          </mxGeometry>
        </mxCell>
        <mxCell id="vAJnB2R6oV3PKbYn6d2F-12" value="string" style="shape=partialRectangle;connectable=0;fillColor=none;top=0;left=0;bottom=0;right=0;align=left;spacingLeft=6;overflow=hidden;whiteSpace=wrap;html=1;" parent="vAJnB2R6oV3PKbYn6d2F-9" vertex="1">
          <mxGeometry x="180" width="86" height="30" as="geometry">
            <mxRectangle width="86" height="30" as="alternateBounds" />
          </mxGeometry>
        </mxCell>
        <mxCell id="Wdy_xFRBNVWLUyz9GwH2-1" style="shape=tableRow;horizontal=0;startSize=0;swimlaneHead=0;swimlaneBody=0;fillColor=none;collapsible=0;dropTarget=0;points=[[0,0.5],[1,0.5]];portConstraint=eastwest;top=0;left=0;right=0;bottom=0;" parent="Hp7_mJl83ue9tpAKIguK-270" vertex="1">
          <mxGeometry y="186" width="266" height="30" as="geometry" />
        </mxCell>
        <mxCell id="Wdy_xFRBNVWLUyz9GwH2-2" style="shape=partialRectangle;connectable=0;fillColor=none;top=0;left=0;bottom=0;right=0;editable=1;overflow=hidden;whiteSpace=wrap;html=1;" parent="Wdy_xFRBNVWLUyz9GwH2-1" vertex="1">
          <mxGeometry width="30" height="30" as="geometry">
            <mxRectangle width="30" height="30" as="alternateBounds" />
          </mxGeometry>
        </mxCell>
        <mxCell id="Wdy_xFRBNVWLUyz9GwH2-3" value="ИНН" style="shape=partialRectangle;connectable=0;fillColor=none;top=0;left=0;bottom=0;right=0;align=left;spacingLeft=6;overflow=hidden;whiteSpace=wrap;html=1;" parent="Wdy_xFRBNVWLUyz9GwH2-1" vertex="1">
          <mxGeometry x="30" width="150" height="30" as="geometry">
            <mxRectangle width="150" height="30" as="alternateBounds" />
          </mxGeometry>
        </mxCell>
        <mxCell id="Wdy_xFRBNVWLUyz9GwH2-4" value="int" style="shape=partialRectangle;connectable=0;fillColor=none;top=0;left=0;bottom=0;right=0;align=left;spacingLeft=6;overflow=hidden;whiteSpace=wrap;html=1;" parent="Wdy_xFRBNVWLUyz9GwH2-1" vertex="1">
          <mxGeometry x="180" width="86" height="30" as="geometry">
            <mxRectangle width="86" height="30" as="alternateBounds" />
          </mxGeometry>
        </mxCell>
        <mxCell id="Hp7_mJl83ue9tpAKIguK-283" value="Участие в проектах" style="shape=table;startSize=30;container=1;collapsible=1;childLayout=tableLayout;fixedRows=1;rowLines=0;fontStyle=1;align=center;resizeLast=1;html=1;fillColor=#fad9d5;strokeColor=#ae4132;" parent="1" vertex="1">
          <mxGeometry x="2369" y="492" width="330" height="180" as="geometry" />
        </mxCell>
        <mxCell id="Hp7_mJl83ue9tpAKIguK-284" value="" style="shape=tableRow;horizontal=0;startSize=0;swimlaneHead=0;swimlaneBody=0;fillColor=none;collapsible=0;dropTarget=0;points=[[0,0.5],[1,0.5]];portConstraint=eastwest;top=0;left=0;right=0;bottom=1;" parent="Hp7_mJl83ue9tpAKIguK-283" vertex="1">
          <mxGeometry y="30" width="330" height="30" as="geometry" />
        </mxCell>
        <mxCell id="Hp7_mJl83ue9tpAKIguK-285" value="FK" style="shape=partialRectangle;connectable=0;fillColor=none;top=0;left=0;bottom=0;right=0;fontStyle=1;overflow=hidden;whiteSpace=wrap;html=1;" parent="Hp7_mJl83ue9tpAKIguK-284" vertex="1">
          <mxGeometry width="30" height="30" as="geometry">
            <mxRectangle width="30" height="30" as="alternateBounds" />
          </mxGeometry>
        </mxCell>
        <mxCell id="Hp7_mJl83ue9tpAKIguK-286" value="id проекта" style="shape=partialRectangle;connectable=0;fillColor=none;top=0;left=0;bottom=0;right=0;align=left;spacingLeft=6;fontStyle=5;overflow=hidden;whiteSpace=wrap;html=1;" parent="Hp7_mJl83ue9tpAKIguK-284" vertex="1">
          <mxGeometry x="30" width="152.36363636363558" height="30" as="geometry">
            <mxRectangle width="152.36363636363558" height="30" as="alternateBounds" />
          </mxGeometry>
        </mxCell>
        <mxCell id="Hp7_mJl83ue9tpAKIguK-287" value="int" style="shape=partialRectangle;connectable=0;fillColor=none;top=0;left=0;bottom=0;right=0;align=left;spacingLeft=6;fontStyle=5;overflow=hidden;whiteSpace=wrap;html=1;" parent="Hp7_mJl83ue9tpAKIguK-284" vertex="1">
          <mxGeometry x="182.36363636363558" width="147.63636363636442" height="30" as="geometry">
            <mxRectangle width="147.63636363636442" height="30" as="alternateBounds" />
          </mxGeometry>
        </mxCell>
        <mxCell id="Hp7_mJl83ue9tpAKIguK-288" value="" style="shape=tableRow;horizontal=0;startSize=0;swimlaneHead=0;swimlaneBody=0;fillColor=none;collapsible=0;dropTarget=0;points=[[0,0.5],[1,0.5]];portConstraint=eastwest;top=0;left=0;right=0;bottom=0;" parent="Hp7_mJl83ue9tpAKIguK-283" vertex="1">
          <mxGeometry y="60" width="330" height="30" as="geometry" />
        </mxCell>
        <mxCell id="Hp7_mJl83ue9tpAKIguK-289" value="FK" style="shape=partialRectangle;connectable=0;fillColor=none;top=0;left=0;bottom=0;right=0;editable=1;overflow=hidden;whiteSpace=wrap;html=1;" parent="Hp7_mJl83ue9tpAKIguK-288" vertex="1">
          <mxGeometry width="30" height="30" as="geometry">
            <mxRectangle width="30" height="30" as="alternateBounds" />
          </mxGeometry>
        </mxCell>
        <mxCell id="Hp7_mJl83ue9tpAKIguK-290" value="id сотрудника" style="shape=partialRectangle;connectable=0;fillColor=none;top=0;left=0;bottom=0;right=0;align=left;spacingLeft=6;overflow=hidden;whiteSpace=wrap;html=1;" parent="Hp7_mJl83ue9tpAKIguK-288" vertex="1">
          <mxGeometry x="30" width="152.36363636363558" height="30" as="geometry">
            <mxRectangle width="152.36363636363558" height="30" as="alternateBounds" />
          </mxGeometry>
        </mxCell>
        <mxCell id="Hp7_mJl83ue9tpAKIguK-291" value="int" style="shape=partialRectangle;connectable=0;fillColor=none;top=0;left=0;bottom=0;right=0;align=left;spacingLeft=6;overflow=hidden;whiteSpace=wrap;html=1;" parent="Hp7_mJl83ue9tpAKIguK-288" vertex="1">
          <mxGeometry x="182.36363636363558" width="147.63636363636442" height="30" as="geometry">
            <mxRectangle width="147.63636363636442" height="30" as="alternateBounds" />
          </mxGeometry>
        </mxCell>
        <mxCell id="Hp7_mJl83ue9tpAKIguK-292" value="" style="shape=tableRow;horizontal=0;startSize=0;swimlaneHead=0;swimlaneBody=0;fillColor=none;collapsible=0;dropTarget=0;points=[[0,0.5],[1,0.5]];portConstraint=eastwest;top=0;left=0;right=0;bottom=0;" parent="Hp7_mJl83ue9tpAKIguK-283" vertex="1">
          <mxGeometry y="90" width="330" height="30" as="geometry" />
        </mxCell>
        <mxCell id="Hp7_mJl83ue9tpAKIguK-293" value="" style="shape=partialRectangle;connectable=0;fillColor=none;top=0;left=0;bottom=0;right=0;editable=1;overflow=hidden;whiteSpace=wrap;html=1;" parent="Hp7_mJl83ue9tpAKIguK-292" vertex="1">
          <mxGeometry width="30" height="30" as="geometry">
            <mxRectangle width="30" height="30" as="alternateBounds" />
          </mxGeometry>
        </mxCell>
        <mxCell id="Hp7_mJl83ue9tpAKIguK-294" value="дата начала" style="shape=partialRectangle;connectable=0;fillColor=none;top=0;left=0;bottom=0;right=0;align=left;spacingLeft=6;overflow=hidden;whiteSpace=wrap;html=1;" parent="Hp7_mJl83ue9tpAKIguK-292" vertex="1">
          <mxGeometry x="30" width="152.36363636363558" height="30" as="geometry">
            <mxRectangle width="152.36363636363558" height="30" as="alternateBounds" />
          </mxGeometry>
        </mxCell>
        <mxCell id="Hp7_mJl83ue9tpAKIguK-295" value="date" style="shape=partialRectangle;connectable=0;fillColor=none;top=0;left=0;bottom=0;right=0;align=left;spacingLeft=6;overflow=hidden;whiteSpace=wrap;html=1;" parent="Hp7_mJl83ue9tpAKIguK-292" vertex="1">
          <mxGeometry x="182.36363636363558" width="147.63636363636442" height="30" as="geometry">
            <mxRectangle width="147.63636363636442" height="30" as="alternateBounds" />
          </mxGeometry>
        </mxCell>
        <mxCell id="Hp7_mJl83ue9tpAKIguK-296" value="" style="shape=tableRow;horizontal=0;startSize=0;swimlaneHead=0;swimlaneBody=0;fillColor=none;collapsible=0;dropTarget=0;points=[[0,0.5],[1,0.5]];portConstraint=eastwest;top=0;left=0;right=0;bottom=0;" parent="Hp7_mJl83ue9tpAKIguK-283" vertex="1">
          <mxGeometry y="120" width="330" height="30" as="geometry" />
        </mxCell>
        <mxCell id="Hp7_mJl83ue9tpAKIguK-297" value="" style="shape=partialRectangle;connectable=0;fillColor=none;top=0;left=0;bottom=0;right=0;editable=1;overflow=hidden;whiteSpace=wrap;html=1;" parent="Hp7_mJl83ue9tpAKIguK-296" vertex="1">
          <mxGeometry width="30" height="30" as="geometry">
            <mxRectangle width="30" height="30" as="alternateBounds" />
          </mxGeometry>
        </mxCell>
        <mxCell id="Hp7_mJl83ue9tpAKIguK-298" value="дата окончания" style="shape=partialRectangle;connectable=0;fillColor=none;top=0;left=0;bottom=0;right=0;align=left;spacingLeft=6;overflow=hidden;whiteSpace=wrap;html=1;" parent="Hp7_mJl83ue9tpAKIguK-296" vertex="1">
          <mxGeometry x="30" width="152.36363636363558" height="30" as="geometry">
            <mxRectangle width="152.36363636363558" height="30" as="alternateBounds" />
          </mxGeometry>
        </mxCell>
        <mxCell id="Hp7_mJl83ue9tpAKIguK-299" value="date" style="shape=partialRectangle;connectable=0;fillColor=none;top=0;left=0;bottom=0;right=0;align=left;spacingLeft=6;overflow=hidden;whiteSpace=wrap;html=1;" parent="Hp7_mJl83ue9tpAKIguK-296" vertex="1">
          <mxGeometry x="182.36363636363558" width="147.63636363636442" height="30" as="geometry">
            <mxRectangle width="147.63636363636442" height="30" as="alternateBounds" />
          </mxGeometry>
        </mxCell>
        <mxCell id="vAJnB2R6oV3PKbYn6d2F-25" style="shape=tableRow;horizontal=0;startSize=0;swimlaneHead=0;swimlaneBody=0;fillColor=none;collapsible=0;dropTarget=0;points=[[0,0.5],[1,0.5]];portConstraint=eastwest;top=0;left=0;right=0;bottom=0;" parent="Hp7_mJl83ue9tpAKIguK-283" vertex="1">
          <mxGeometry y="150" width="330" height="30" as="geometry" />
        </mxCell>
        <mxCell id="vAJnB2R6oV3PKbYn6d2F-26" style="shape=partialRectangle;connectable=0;fillColor=none;top=0;left=0;bottom=0;right=0;editable=1;overflow=hidden;whiteSpace=wrap;html=1;" parent="vAJnB2R6oV3PKbYn6d2F-25" vertex="1">
          <mxGeometry width="30" height="30" as="geometry">
            <mxRectangle width="30" height="30" as="alternateBounds" />
          </mxGeometry>
        </mxCell>
        <mxCell id="vAJnB2R6oV3PKbYn6d2F-27" value="роль" style="shape=partialRectangle;connectable=0;fillColor=none;top=0;left=0;bottom=0;right=0;align=left;spacingLeft=6;overflow=hidden;whiteSpace=wrap;html=1;" parent="vAJnB2R6oV3PKbYn6d2F-25" vertex="1">
          <mxGeometry x="30" width="152.36363636363558" height="30" as="geometry">
            <mxRectangle width="152.36363636363558" height="30" as="alternateBounds" />
          </mxGeometry>
        </mxCell>
        <mxCell id="vAJnB2R6oV3PKbYn6d2F-28" value="string" style="shape=partialRectangle;connectable=0;fillColor=none;top=0;left=0;bottom=0;right=0;align=left;spacingLeft=6;overflow=hidden;whiteSpace=wrap;html=1;" parent="vAJnB2R6oV3PKbYn6d2F-25" vertex="1">
          <mxGeometry x="182.36363636363558" width="147.63636363636442" height="30" as="geometry">
            <mxRectangle width="147.63636363636442" height="30" as="alternateBounds" />
          </mxGeometry>
        </mxCell>
        <mxCell id="Hp7_mJl83ue9tpAKIguK-304" value="Отдел" style="shape=table;startSize=24;container=1;collapsible=1;childLayout=tableLayout;fixedRows=1;rowLines=0;fontStyle=1;align=center;resizeLast=1;html=1;fillColor=#fad9d5;strokeColor=#ae4132;" parent="1" vertex="1">
          <mxGeometry x="2027" y="206" width="260" height="144" as="geometry" />
        </mxCell>
        <mxCell id="Hp7_mJl83ue9tpAKIguK-305" value="" style="shape=tableRow;horizontal=0;startSize=0;swimlaneHead=0;swimlaneBody=0;fillColor=none;collapsible=0;dropTarget=0;points=[[0,0.5],[1,0.5]];portConstraint=eastwest;top=0;left=0;right=0;bottom=1;" parent="Hp7_mJl83ue9tpAKIguK-304" vertex="1">
          <mxGeometry y="24" width="260" height="30" as="geometry" />
        </mxCell>
        <mxCell id="Hp7_mJl83ue9tpAKIguK-306" value="PK" style="shape=partialRectangle;connectable=0;fillColor=none;top=0;left=0;bottom=0;right=0;fontStyle=1;overflow=hidden;whiteSpace=wrap;html=1;" parent="Hp7_mJl83ue9tpAKIguK-305" vertex="1">
          <mxGeometry width="30" height="30" as="geometry">
            <mxRectangle width="30" height="30" as="alternateBounds" />
          </mxGeometry>
        </mxCell>
        <mxCell id="Hp7_mJl83ue9tpAKIguK-307" value="id" style="shape=partialRectangle;connectable=0;fillColor=none;top=0;left=0;bottom=0;right=0;align=left;spacingLeft=6;fontStyle=5;overflow=hidden;whiteSpace=wrap;html=1;" parent="Hp7_mJl83ue9tpAKIguK-305" vertex="1">
          <mxGeometry x="30" width="150" height="30" as="geometry">
            <mxRectangle width="150" height="30" as="alternateBounds" />
          </mxGeometry>
        </mxCell>
        <mxCell id="Hp7_mJl83ue9tpAKIguK-308" value="int" style="shape=partialRectangle;connectable=0;fillColor=none;top=0;left=0;bottom=0;right=0;align=left;spacingLeft=6;fontStyle=5;overflow=hidden;whiteSpace=wrap;html=1;" parent="Hp7_mJl83ue9tpAKIguK-305" vertex="1">
          <mxGeometry x="180" width="80" height="30" as="geometry">
            <mxRectangle width="80" height="30" as="alternateBounds" />
          </mxGeometry>
        </mxCell>
        <mxCell id="Hp7_mJl83ue9tpAKIguK-309" value="" style="shape=tableRow;horizontal=0;startSize=0;swimlaneHead=0;swimlaneBody=0;fillColor=none;collapsible=0;dropTarget=0;points=[[0,0.5],[1,0.5]];portConstraint=eastwest;top=0;left=0;right=0;bottom=0;" parent="Hp7_mJl83ue9tpAKIguK-304" vertex="1">
          <mxGeometry y="54" width="260" height="30" as="geometry" />
        </mxCell>
        <mxCell id="Hp7_mJl83ue9tpAKIguK-310" value="" style="shape=partialRectangle;connectable=0;fillColor=none;top=0;left=0;bottom=0;right=0;editable=1;overflow=hidden;whiteSpace=wrap;html=1;" parent="Hp7_mJl83ue9tpAKIguK-309" vertex="1">
          <mxGeometry width="30" height="30" as="geometry">
            <mxRectangle width="30" height="30" as="alternateBounds" />
          </mxGeometry>
        </mxCell>
        <mxCell id="Hp7_mJl83ue9tpAKIguK-311" value="Название" style="shape=partialRectangle;connectable=0;fillColor=none;top=0;left=0;bottom=0;right=0;align=left;spacingLeft=6;overflow=hidden;whiteSpace=wrap;html=1;" parent="Hp7_mJl83ue9tpAKIguK-309" vertex="1">
          <mxGeometry x="30" width="150" height="30" as="geometry">
            <mxRectangle width="150" height="30" as="alternateBounds" />
          </mxGeometry>
        </mxCell>
        <mxCell id="Hp7_mJl83ue9tpAKIguK-312" value="string" style="shape=partialRectangle;connectable=0;fillColor=none;top=0;left=0;bottom=0;right=0;align=left;spacingLeft=6;overflow=hidden;whiteSpace=wrap;html=1;" parent="Hp7_mJl83ue9tpAKIguK-309" vertex="1">
          <mxGeometry x="180" width="80" height="30" as="geometry">
            <mxRectangle width="80" height="30" as="alternateBounds" />
          </mxGeometry>
        </mxCell>
        <mxCell id="Hp7_mJl83ue9tpAKIguK-330" value="" style="shape=tableRow;horizontal=0;startSize=0;swimlaneHead=0;swimlaneBody=0;fillColor=none;collapsible=0;dropTarget=0;points=[[0,0.5],[1,0.5]];portConstraint=eastwest;top=0;left=0;right=0;bottom=0;" parent="Hp7_mJl83ue9tpAKIguK-304" vertex="1">
          <mxGeometry y="84" width="260" height="30" as="geometry" />
        </mxCell>
        <mxCell id="Hp7_mJl83ue9tpAKIguK-331" value="" style="shape=partialRectangle;connectable=0;fillColor=none;top=0;left=0;bottom=0;right=0;editable=1;overflow=hidden;whiteSpace=wrap;html=1;" parent="Hp7_mJl83ue9tpAKIguK-330" vertex="1">
          <mxGeometry width="30" height="30" as="geometry">
            <mxRectangle width="30" height="30" as="alternateBounds" />
          </mxGeometry>
        </mxCell>
        <mxCell id="Hp7_mJl83ue9tpAKIguK-332" value="Обязаности" style="shape=partialRectangle;connectable=0;fillColor=none;top=0;left=0;bottom=0;right=0;align=left;spacingLeft=6;overflow=hidden;whiteSpace=wrap;html=1;" parent="Hp7_mJl83ue9tpAKIguK-330" vertex="1">
          <mxGeometry x="30" width="150" height="30" as="geometry">
            <mxRectangle width="150" height="30" as="alternateBounds" />
          </mxGeometry>
        </mxCell>
        <mxCell id="Hp7_mJl83ue9tpAKIguK-333" value="string" style="shape=partialRectangle;connectable=0;fillColor=none;top=0;left=0;bottom=0;right=0;align=left;spacingLeft=6;overflow=hidden;whiteSpace=wrap;html=1;" parent="Hp7_mJl83ue9tpAKIguK-330" vertex="1">
          <mxGeometry x="180" width="80" height="30" as="geometry">
            <mxRectangle width="80" height="30" as="alternateBounds" />
          </mxGeometry>
        </mxCell>
        <mxCell id="Hp7_mJl83ue9tpAKIguK-313" value="" style="shape=tableRow;horizontal=0;startSize=0;swimlaneHead=0;swimlaneBody=0;fillColor=none;collapsible=0;dropTarget=0;points=[[0,0.5],[1,0.5]];portConstraint=eastwest;top=0;left=0;right=0;bottom=0;" parent="Hp7_mJl83ue9tpAKIguK-304" vertex="1">
          <mxGeometry y="114" width="260" height="30" as="geometry" />
        </mxCell>
        <mxCell id="Hp7_mJl83ue9tpAKIguK-314" value="" style="shape=partialRectangle;connectable=0;fillColor=none;top=0;left=0;bottom=0;right=0;editable=1;overflow=hidden;whiteSpace=wrap;html=1;" parent="Hp7_mJl83ue9tpAKIguK-313" vertex="1">
          <mxGeometry width="30" height="30" as="geometry">
            <mxRectangle width="30" height="30" as="alternateBounds" />
          </mxGeometry>
        </mxCell>
        <mxCell id="Hp7_mJl83ue9tpAKIguK-315" value="Email" style="shape=partialRectangle;connectable=0;fillColor=none;top=0;left=0;bottom=0;right=0;align=left;spacingLeft=6;overflow=hidden;whiteSpace=wrap;html=1;" parent="Hp7_mJl83ue9tpAKIguK-313" vertex="1">
          <mxGeometry x="30" width="150" height="30" as="geometry">
            <mxRectangle width="150" height="30" as="alternateBounds" />
          </mxGeometry>
        </mxCell>
        <mxCell id="Hp7_mJl83ue9tpAKIguK-316" value="string" style="shape=partialRectangle;connectable=0;fillColor=none;top=0;left=0;bottom=0;right=0;align=left;spacingLeft=6;overflow=hidden;whiteSpace=wrap;html=1;" parent="Hp7_mJl83ue9tpAKIguK-313" vertex="1">
          <mxGeometry x="180" width="80" height="30" as="geometry">
            <mxRectangle width="80" height="30" as="alternateBounds" />
          </mxGeometry>
        </mxCell>
        <mxCell id="Hp7_mJl83ue9tpAKIguK-321" value="" style="edgeStyle=orthogonalEdgeStyle;fontSize=12;html=1;endArrow=ERoneToMany;startArrow=ERmandOne;rounded=0;exitX=1;exitY=0.5;exitDx=0;exitDy=0;entryX=0;entryY=0.5;entryDx=0;entryDy=0;" parent="1" source="Hp7_mJl83ue9tpAKIguK-305" target="Hp7_mJl83ue9tpAKIguK-266" edge="1">
          <mxGeometry width="100" height="100" relative="1" as="geometry">
            <mxPoint x="2040" y="158" as="sourcePoint" />
            <mxPoint x="1859" y="756" as="targetPoint" />
            <Array as="points">
              <mxPoint x="2302" y="245" />
              <mxPoint x="2302" y="337" />
            </Array>
          </mxGeometry>
        </mxCell>
        <mxCell id="Hp7_mJl83ue9tpAKIguK-334" value="" style="edgeStyle=orthogonalEdgeStyle;fontSize=12;html=1;endArrow=ERoneToMany;startArrow=ERmandOne;rounded=0;entryX=0;entryY=0.5;entryDx=0;entryDy=0;exitX=1;exitY=0.5;exitDx=0;exitDy=0;" parent="1" source="Hp7_mJl83ue9tpAKIguK-336" target="Hp7_mJl83ue9tpAKIguK-326" edge="1">
          <mxGeometry width="100" height="100" relative="1" as="geometry">
            <mxPoint x="2064" y="736" as="sourcePoint" />
            <mxPoint x="2064" y="635" as="targetPoint" />
            <Array as="points">
              <mxPoint x="2319" y="413" />
              <mxPoint x="2319" y="367" />
            </Array>
          </mxGeometry>
        </mxCell>
        <mxCell id="Hp7_mJl83ue9tpAKIguK-335" value="Должность" style="shape=table;startSize=30;container=1;collapsible=1;childLayout=tableLayout;fixedRows=1;rowLines=0;fontStyle=1;align=center;resizeLast=1;html=1;fillColor=#fad9d5;strokeColor=#ae4132;" parent="1" vertex="1">
          <mxGeometry x="2027" y="368" width="242" height="180" as="geometry" />
        </mxCell>
        <mxCell id="Hp7_mJl83ue9tpAKIguK-336" value="" style="shape=tableRow;horizontal=0;startSize=0;swimlaneHead=0;swimlaneBody=0;fillColor=none;collapsible=0;dropTarget=0;points=[[0,0.5],[1,0.5]];portConstraint=eastwest;top=0;left=0;right=0;bottom=1;" parent="Hp7_mJl83ue9tpAKIguK-335" vertex="1">
          <mxGeometry y="30" width="242" height="30" as="geometry" />
        </mxCell>
        <mxCell id="Hp7_mJl83ue9tpAKIguK-337" value="PK" style="shape=partialRectangle;connectable=0;fillColor=none;top=0;left=0;bottom=0;right=0;fontStyle=1;overflow=hidden;whiteSpace=wrap;html=1;" parent="Hp7_mJl83ue9tpAKIguK-336" vertex="1">
          <mxGeometry width="30" height="30" as="geometry">
            <mxRectangle width="30" height="30" as="alternateBounds" />
          </mxGeometry>
        </mxCell>
        <mxCell id="Hp7_mJl83ue9tpAKIguK-338" value="id" style="shape=partialRectangle;connectable=0;fillColor=none;top=0;left=0;bottom=0;right=0;align=left;spacingLeft=6;fontStyle=5;overflow=hidden;whiteSpace=wrap;html=1;" parent="Hp7_mJl83ue9tpAKIguK-336" vertex="1">
          <mxGeometry x="30" width="105.14285714285705" height="30" as="geometry">
            <mxRectangle width="105.14285714285705" height="30" as="alternateBounds" />
          </mxGeometry>
        </mxCell>
        <mxCell id="Hp7_mJl83ue9tpAKIguK-339" value="int" style="shape=partialRectangle;connectable=0;fillColor=none;top=0;left=0;bottom=0;right=0;align=left;spacingLeft=6;fontStyle=5;overflow=hidden;whiteSpace=wrap;html=1;" parent="Hp7_mJl83ue9tpAKIguK-336" vertex="1">
          <mxGeometry x="135.14285714285705" width="106.85714285714295" height="30" as="geometry">
            <mxRectangle width="106.85714285714295" height="30" as="alternateBounds" />
          </mxGeometry>
        </mxCell>
        <mxCell id="Hp7_mJl83ue9tpAKIguK-340" value="" style="shape=tableRow;horizontal=0;startSize=0;swimlaneHead=0;swimlaneBody=0;fillColor=none;collapsible=0;dropTarget=0;points=[[0,0.5],[1,0.5]];portConstraint=eastwest;top=0;left=0;right=0;bottom=0;" parent="Hp7_mJl83ue9tpAKIguK-335" vertex="1">
          <mxGeometry y="60" width="242" height="30" as="geometry" />
        </mxCell>
        <mxCell id="Hp7_mJl83ue9tpAKIguK-341" value="" style="shape=partialRectangle;connectable=0;fillColor=none;top=0;left=0;bottom=0;right=0;editable=1;overflow=hidden;whiteSpace=wrap;html=1;" parent="Hp7_mJl83ue9tpAKIguK-340" vertex="1">
          <mxGeometry width="30" height="30" as="geometry">
            <mxRectangle width="30" height="30" as="alternateBounds" />
          </mxGeometry>
        </mxCell>
        <mxCell id="Hp7_mJl83ue9tpAKIguK-342" value="Название" style="shape=partialRectangle;connectable=0;fillColor=none;top=0;left=0;bottom=0;right=0;align=left;spacingLeft=6;overflow=hidden;whiteSpace=wrap;html=1;" parent="Hp7_mJl83ue9tpAKIguK-340" vertex="1">
          <mxGeometry x="30" width="105.14285714285705" height="30" as="geometry">
            <mxRectangle width="105.14285714285705" height="30" as="alternateBounds" />
          </mxGeometry>
        </mxCell>
        <mxCell id="Hp7_mJl83ue9tpAKIguK-343" value="string" style="shape=partialRectangle;connectable=0;fillColor=none;top=0;left=0;bottom=0;right=0;align=left;spacingLeft=6;overflow=hidden;whiteSpace=wrap;html=1;" parent="Hp7_mJl83ue9tpAKIguK-340" vertex="1">
          <mxGeometry x="135.14285714285705" width="106.85714285714295" height="30" as="geometry">
            <mxRectangle width="106.85714285714295" height="30" as="alternateBounds" />
          </mxGeometry>
        </mxCell>
        <mxCell id="vAJnB2R6oV3PKbYn6d2F-1" style="shape=tableRow;horizontal=0;startSize=0;swimlaneHead=0;swimlaneBody=0;fillColor=none;collapsible=0;dropTarget=0;points=[[0,0.5],[1,0.5]];portConstraint=eastwest;top=0;left=0;right=0;bottom=0;" parent="Hp7_mJl83ue9tpAKIguK-335" vertex="1">
          <mxGeometry y="90" width="242" height="30" as="geometry" />
        </mxCell>
        <mxCell id="vAJnB2R6oV3PKbYn6d2F-2" style="shape=partialRectangle;connectable=0;fillColor=none;top=0;left=0;bottom=0;right=0;editable=1;overflow=hidden;whiteSpace=wrap;html=1;" parent="vAJnB2R6oV3PKbYn6d2F-1" vertex="1">
          <mxGeometry width="30" height="30" as="geometry">
            <mxRectangle width="30" height="30" as="alternateBounds" />
          </mxGeometry>
        </mxCell>
        <mxCell id="vAJnB2R6oV3PKbYn6d2F-3" value="Обязанности" style="shape=partialRectangle;connectable=0;fillColor=none;top=0;left=0;bottom=0;right=0;align=left;spacingLeft=6;overflow=hidden;whiteSpace=wrap;html=1;" parent="vAJnB2R6oV3PKbYn6d2F-1" vertex="1">
          <mxGeometry x="30" width="105.14285714285705" height="30" as="geometry">
            <mxRectangle width="105.14285714285705" height="30" as="alternateBounds" />
          </mxGeometry>
        </mxCell>
        <mxCell id="vAJnB2R6oV3PKbYn6d2F-4" value="string" style="shape=partialRectangle;connectable=0;fillColor=none;top=0;left=0;bottom=0;right=0;align=left;spacingLeft=6;overflow=hidden;whiteSpace=wrap;html=1;" parent="vAJnB2R6oV3PKbYn6d2F-1" vertex="1">
          <mxGeometry x="135.14285714285705" width="106.85714285714295" height="30" as="geometry">
            <mxRectangle width="106.85714285714295" height="30" as="alternateBounds" />
          </mxGeometry>
        </mxCell>
        <mxCell id="vAJnB2R6oV3PKbYn6d2F-13" style="shape=tableRow;horizontal=0;startSize=0;swimlaneHead=0;swimlaneBody=0;fillColor=none;collapsible=0;dropTarget=0;points=[[0,0.5],[1,0.5]];portConstraint=eastwest;top=0;left=0;right=0;bottom=0;" parent="Hp7_mJl83ue9tpAKIguK-335" vertex="1">
          <mxGeometry y="120" width="242" height="30" as="geometry" />
        </mxCell>
        <mxCell id="vAJnB2R6oV3PKbYn6d2F-14" style="shape=partialRectangle;connectable=0;fillColor=none;top=0;left=0;bottom=0;right=0;editable=1;overflow=hidden;whiteSpace=wrap;html=1;" parent="vAJnB2R6oV3PKbYn6d2F-13" vertex="1">
          <mxGeometry width="30" height="30" as="geometry">
            <mxRectangle width="30" height="30" as="alternateBounds" />
          </mxGeometry>
        </mxCell>
        <mxCell id="vAJnB2R6oV3PKbYn6d2F-15" value="Требуемый опыт" style="shape=partialRectangle;connectable=0;fillColor=none;top=0;left=0;bottom=0;right=0;align=left;spacingLeft=6;overflow=hidden;whiteSpace=wrap;html=1;" parent="vAJnB2R6oV3PKbYn6d2F-13" vertex="1">
          <mxGeometry x="30" width="105.14285714285705" height="30" as="geometry">
            <mxRectangle width="105.14285714285705" height="30" as="alternateBounds" />
          </mxGeometry>
        </mxCell>
        <mxCell id="vAJnB2R6oV3PKbYn6d2F-16" value="int" style="shape=partialRectangle;connectable=0;fillColor=none;top=0;left=0;bottom=0;right=0;align=left;spacingLeft=6;overflow=hidden;whiteSpace=wrap;html=1;" parent="vAJnB2R6oV3PKbYn6d2F-13" vertex="1">
          <mxGeometry x="135.14285714285705" width="106.85714285714295" height="30" as="geometry">
            <mxRectangle width="106.85714285714295" height="30" as="alternateBounds" />
          </mxGeometry>
        </mxCell>
        <mxCell id="vAJnB2R6oV3PKbYn6d2F-17" style="shape=tableRow;horizontal=0;startSize=0;swimlaneHead=0;swimlaneBody=0;fillColor=none;collapsible=0;dropTarget=0;points=[[0,0.5],[1,0.5]];portConstraint=eastwest;top=0;left=0;right=0;bottom=0;" parent="Hp7_mJl83ue9tpAKIguK-335" vertex="1">
          <mxGeometry y="150" width="242" height="30" as="geometry" />
        </mxCell>
        <mxCell id="vAJnB2R6oV3PKbYn6d2F-18" style="shape=partialRectangle;connectable=0;fillColor=none;top=0;left=0;bottom=0;right=0;editable=1;overflow=hidden;whiteSpace=wrap;html=1;" parent="vAJnB2R6oV3PKbYn6d2F-17" vertex="1">
          <mxGeometry width="30" height="30" as="geometry">
            <mxRectangle width="30" height="30" as="alternateBounds" />
          </mxGeometry>
        </mxCell>
        <mxCell id="vAJnB2R6oV3PKbYn6d2F-19" value="Образование" style="shape=partialRectangle;connectable=0;fillColor=none;top=0;left=0;bottom=0;right=0;align=left;spacingLeft=6;overflow=hidden;whiteSpace=wrap;html=1;" parent="vAJnB2R6oV3PKbYn6d2F-17" vertex="1">
          <mxGeometry x="30" width="105.14285714285705" height="30" as="geometry">
            <mxRectangle width="105.14285714285705" height="30" as="alternateBounds" />
          </mxGeometry>
        </mxCell>
        <mxCell id="vAJnB2R6oV3PKbYn6d2F-20" value="string" style="shape=partialRectangle;connectable=0;fillColor=none;top=0;left=0;bottom=0;right=0;align=left;spacingLeft=6;overflow=hidden;whiteSpace=wrap;html=1;" parent="vAJnB2R6oV3PKbYn6d2F-17" vertex="1">
          <mxGeometry x="135.14285714285705" width="106.85714285714295" height="30" as="geometry">
            <mxRectangle width="106.85714285714295" height="30" as="alternateBounds" />
          </mxGeometry>
        </mxCell>
        <mxCell id="Wdy_xFRBNVWLUyz9GwH2-5" value="Проект" style="shape=table;startSize=30;container=1;collapsible=1;childLayout=tableLayout;fixedRows=1;rowLines=0;fontStyle=1;align=center;resizeLast=1;html=1;fillColor=#fad9d5;strokeColor=#ae4132;" parent="1" vertex="1">
          <mxGeometry x="2708" y="202" width="248" height="180" as="geometry" />
        </mxCell>
        <mxCell id="Wdy_xFRBNVWLUyz9GwH2-6" value="" style="shape=tableRow;horizontal=0;startSize=0;swimlaneHead=0;swimlaneBody=0;fillColor=none;collapsible=0;dropTarget=0;points=[[0,0.5],[1,0.5]];portConstraint=eastwest;top=0;left=0;right=0;bottom=1;" parent="Wdy_xFRBNVWLUyz9GwH2-5" vertex="1">
          <mxGeometry y="30" width="248" height="30" as="geometry" />
        </mxCell>
        <mxCell id="Wdy_xFRBNVWLUyz9GwH2-7" value="PK" style="shape=partialRectangle;connectable=0;fillColor=none;top=0;left=0;bottom=0;right=0;fontStyle=1;overflow=hidden;whiteSpace=wrap;html=1;" parent="Wdy_xFRBNVWLUyz9GwH2-6" vertex="1">
          <mxGeometry width="30" height="30" as="geometry">
            <mxRectangle width="30" height="30" as="alternateBounds" />
          </mxGeometry>
        </mxCell>
        <mxCell id="Wdy_xFRBNVWLUyz9GwH2-8" value="id" style="shape=partialRectangle;connectable=0;fillColor=none;top=0;left=0;bottom=0;right=0;align=left;spacingLeft=6;fontStyle=5;overflow=hidden;whiteSpace=wrap;html=1;" parent="Wdy_xFRBNVWLUyz9GwH2-6" vertex="1">
          <mxGeometry x="30" width="150" height="30" as="geometry">
            <mxRectangle width="150" height="30" as="alternateBounds" />
          </mxGeometry>
        </mxCell>
        <mxCell id="Wdy_xFRBNVWLUyz9GwH2-9" value="int" style="shape=partialRectangle;connectable=0;fillColor=none;top=0;left=0;bottom=0;right=0;align=left;spacingLeft=6;fontStyle=5;overflow=hidden;whiteSpace=wrap;html=1;" parent="Wdy_xFRBNVWLUyz9GwH2-6" vertex="1">
          <mxGeometry x="180" width="68" height="30" as="geometry">
            <mxRectangle width="68" height="30" as="alternateBounds" />
          </mxGeometry>
        </mxCell>
        <mxCell id="Wdy_xFRBNVWLUyz9GwH2-10" value="" style="shape=tableRow;horizontal=0;startSize=0;swimlaneHead=0;swimlaneBody=0;fillColor=none;collapsible=0;dropTarget=0;points=[[0,0.5],[1,0.5]];portConstraint=eastwest;top=0;left=0;right=0;bottom=0;" parent="Wdy_xFRBNVWLUyz9GwH2-5" vertex="1">
          <mxGeometry y="60" width="248" height="30" as="geometry" />
        </mxCell>
        <mxCell id="Wdy_xFRBNVWLUyz9GwH2-11" value="" style="shape=partialRectangle;connectable=0;fillColor=none;top=0;left=0;bottom=0;right=0;editable=1;overflow=hidden;whiteSpace=wrap;html=1;" parent="Wdy_xFRBNVWLUyz9GwH2-10" vertex="1">
          <mxGeometry width="30" height="30" as="geometry">
            <mxRectangle width="30" height="30" as="alternateBounds" />
          </mxGeometry>
        </mxCell>
        <mxCell id="Wdy_xFRBNVWLUyz9GwH2-12" value="Название" style="shape=partialRectangle;connectable=0;fillColor=none;top=0;left=0;bottom=0;right=0;align=left;spacingLeft=6;overflow=hidden;whiteSpace=wrap;html=1;" parent="Wdy_xFRBNVWLUyz9GwH2-10" vertex="1">
          <mxGeometry x="30" width="150" height="30" as="geometry">
            <mxRectangle width="150" height="30" as="alternateBounds" />
          </mxGeometry>
        </mxCell>
        <mxCell id="Wdy_xFRBNVWLUyz9GwH2-13" value="string" style="shape=partialRectangle;connectable=0;fillColor=none;top=0;left=0;bottom=0;right=0;align=left;spacingLeft=6;overflow=hidden;whiteSpace=wrap;html=1;" parent="Wdy_xFRBNVWLUyz9GwH2-10" vertex="1">
          <mxGeometry x="180" width="68" height="30" as="geometry">
            <mxRectangle width="68" height="30" as="alternateBounds" />
          </mxGeometry>
        </mxCell>
        <mxCell id="Wdy_xFRBNVWLUyz9GwH2-14" value="" style="shape=tableRow;horizontal=0;startSize=0;swimlaneHead=0;swimlaneBody=0;fillColor=none;collapsible=0;dropTarget=0;points=[[0,0.5],[1,0.5]];portConstraint=eastwest;top=0;left=0;right=0;bottom=0;" parent="Wdy_xFRBNVWLUyz9GwH2-5" vertex="1">
          <mxGeometry y="90" width="248" height="30" as="geometry" />
        </mxCell>
        <mxCell id="Wdy_xFRBNVWLUyz9GwH2-15" value="" style="shape=partialRectangle;connectable=0;fillColor=none;top=0;left=0;bottom=0;right=0;editable=1;overflow=hidden;whiteSpace=wrap;html=1;" parent="Wdy_xFRBNVWLUyz9GwH2-14" vertex="1">
          <mxGeometry width="30" height="30" as="geometry">
            <mxRectangle width="30" height="30" as="alternateBounds" />
          </mxGeometry>
        </mxCell>
        <mxCell id="Wdy_xFRBNVWLUyz9GwH2-16" value="Описание" style="shape=partialRectangle;connectable=0;fillColor=none;top=0;left=0;bottom=0;right=0;align=left;spacingLeft=6;overflow=hidden;whiteSpace=wrap;html=1;" parent="Wdy_xFRBNVWLUyz9GwH2-14" vertex="1">
          <mxGeometry x="30" width="150" height="30" as="geometry">
            <mxRectangle width="150" height="30" as="alternateBounds" />
          </mxGeometry>
        </mxCell>
        <mxCell id="Wdy_xFRBNVWLUyz9GwH2-17" value="string" style="shape=partialRectangle;connectable=0;fillColor=none;top=0;left=0;bottom=0;right=0;align=left;spacingLeft=6;overflow=hidden;whiteSpace=wrap;html=1;" parent="Wdy_xFRBNVWLUyz9GwH2-14" vertex="1">
          <mxGeometry x="180" width="68" height="30" as="geometry">
            <mxRectangle width="68" height="30" as="alternateBounds" />
          </mxGeometry>
        </mxCell>
        <mxCell id="Wdy_xFRBNVWLUyz9GwH2-18" value="" style="shape=tableRow;horizontal=0;startSize=0;swimlaneHead=0;swimlaneBody=0;fillColor=none;collapsible=0;dropTarget=0;points=[[0,0.5],[1,0.5]];portConstraint=eastwest;top=0;left=0;right=0;bottom=0;" parent="Wdy_xFRBNVWLUyz9GwH2-5" vertex="1">
          <mxGeometry y="120" width="248" height="30" as="geometry" />
        </mxCell>
        <mxCell id="Wdy_xFRBNVWLUyz9GwH2-19" value="FK" style="shape=partialRectangle;connectable=0;fillColor=none;top=0;left=0;bottom=0;right=0;editable=1;overflow=hidden;whiteSpace=wrap;html=1;" parent="Wdy_xFRBNVWLUyz9GwH2-18" vertex="1">
          <mxGeometry width="30" height="30" as="geometry">
            <mxRectangle width="30" height="30" as="alternateBounds" />
          </mxGeometry>
        </mxCell>
        <mxCell id="Wdy_xFRBNVWLUyz9GwH2-20" value="id клиента" style="shape=partialRectangle;connectable=0;fillColor=none;top=0;left=0;bottom=0;right=0;align=left;spacingLeft=6;overflow=hidden;whiteSpace=wrap;html=1;" parent="Wdy_xFRBNVWLUyz9GwH2-18" vertex="1">
          <mxGeometry x="30" width="150" height="30" as="geometry">
            <mxRectangle width="150" height="30" as="alternateBounds" />
          </mxGeometry>
        </mxCell>
        <mxCell id="Wdy_xFRBNVWLUyz9GwH2-21" value="int" style="shape=partialRectangle;connectable=0;fillColor=none;top=0;left=0;bottom=0;right=0;align=left;spacingLeft=6;overflow=hidden;whiteSpace=wrap;html=1;" parent="Wdy_xFRBNVWLUyz9GwH2-18" vertex="1">
          <mxGeometry x="180" width="68" height="30" as="geometry">
            <mxRectangle width="68" height="30" as="alternateBounds" />
          </mxGeometry>
        </mxCell>
        <mxCell id="Wdy_xFRBNVWLUyz9GwH2-26" style="shape=tableRow;horizontal=0;startSize=0;swimlaneHead=0;swimlaneBody=0;fillColor=none;collapsible=0;dropTarget=0;points=[[0,0.5],[1,0.5]];portConstraint=eastwest;top=0;left=0;right=0;bottom=0;" parent="Wdy_xFRBNVWLUyz9GwH2-5" vertex="1">
          <mxGeometry y="150" width="248" height="30" as="geometry" />
        </mxCell>
        <mxCell id="Wdy_xFRBNVWLUyz9GwH2-27" style="shape=partialRectangle;connectable=0;fillColor=none;top=0;left=0;bottom=0;right=0;editable=1;overflow=hidden;whiteSpace=wrap;html=1;" parent="Wdy_xFRBNVWLUyz9GwH2-26" vertex="1">
          <mxGeometry width="30" height="30" as="geometry">
            <mxRectangle width="30" height="30" as="alternateBounds" />
          </mxGeometry>
        </mxCell>
        <mxCell id="Wdy_xFRBNVWLUyz9GwH2-28" value="Статус" style="shape=partialRectangle;connectable=0;fillColor=none;top=0;left=0;bottom=0;right=0;align=left;spacingLeft=6;overflow=hidden;whiteSpace=wrap;html=1;" parent="Wdy_xFRBNVWLUyz9GwH2-26" vertex="1">
          <mxGeometry x="30" width="150" height="30" as="geometry">
            <mxRectangle width="150" height="30" as="alternateBounds" />
          </mxGeometry>
        </mxCell>
        <mxCell id="Wdy_xFRBNVWLUyz9GwH2-29" value="enum" style="shape=partialRectangle;connectable=0;fillColor=none;top=0;left=0;bottom=0;right=0;align=left;spacingLeft=6;overflow=hidden;whiteSpace=wrap;html=1;" parent="Wdy_xFRBNVWLUyz9GwH2-26" vertex="1">
          <mxGeometry x="180" width="68" height="30" as="geometry">
            <mxRectangle width="68" height="30" as="alternateBounds" />
          </mxGeometry>
        </mxCell>
        <mxCell id="Wdy_xFRBNVWLUyz9GwH2-43" value="" style="edgeStyle=orthogonalEdgeStyle;fontSize=12;html=1;endArrow=ERoneToMany;startArrow=ERmandOne;rounded=0;entryX=0;entryY=0.5;entryDx=0;entryDy=0;exitX=1;exitY=0.5;exitDx=0;exitDy=0;" parent="1" source="Hp7_mJl83ue9tpAKIguK-254" target="Hp7_mJl83ue9tpAKIguK-288" edge="1">
          <mxGeometry width="100" height="100" relative="1" as="geometry">
            <mxPoint x="2279" y="423" as="sourcePoint" />
            <mxPoint x="2379" y="377" as="targetPoint" />
            <Array as="points">
              <mxPoint x="2645" y="247" />
              <mxPoint x="2645" y="462" />
              <mxPoint x="2347" y="462" />
              <mxPoint x="2347" y="567" />
            </Array>
          </mxGeometry>
        </mxCell>
        <mxCell id="Wdy_xFRBNVWLUyz9GwH2-44" value="" style="edgeStyle=orthogonalEdgeStyle;fontSize=12;html=1;endArrow=ERoneToMany;startArrow=ERmandOne;rounded=0;entryX=1;entryY=0.5;entryDx=0;entryDy=0;exitX=0.005;exitY=0.424;exitDx=0;exitDy=0;exitPerimeter=0;" parent="1" source="Hp7_mJl83ue9tpAKIguK-271" edge="1">
          <mxGeometry width="100" height="100" relative="1" as="geometry">
            <mxPoint x="3059" y="248" as="sourcePoint" />
            <mxPoint x="2955.9999999999995" y="335.5" as="targetPoint" />
            <Array as="points">
              <mxPoint x="3051" y="247" />
              <mxPoint x="2993" y="247" />
              <mxPoint x="2993" y="336" />
            </Array>
          </mxGeometry>
        </mxCell>
        <mxCell id="Wdy_xFRBNVWLUyz9GwH2-45" value="" style="edgeStyle=orthogonalEdgeStyle;fontSize=12;html=1;endArrow=ERoneToMany;startArrow=ERmandOne;rounded=0;entryX=0;entryY=0.5;entryDx=0;entryDy=0;exitX=0;exitY=0.5;exitDx=0;exitDy=0;" parent="1" source="Wdy_xFRBNVWLUyz9GwH2-6" target="Hp7_mJl83ue9tpAKIguK-233" edge="1">
          <mxGeometry width="100" height="100" relative="1" as="geometry">
            <mxPoint x="3082" y="257" as="sourcePoint" />
            <mxPoint x="2965.9999999999995" y="345.5" as="targetPoint" />
            <Array as="points">
              <mxPoint x="2691" y="247" />
              <mxPoint x="2691" y="477" />
            </Array>
          </mxGeometry>
        </mxCell>
        <mxCell id="Wdy_xFRBNVWLUyz9GwH2-46" value="" style="edgeStyle=orthogonalEdgeStyle;fontSize=12;html=1;endArrow=ERoneToMany;startArrow=ERmandOne;rounded=0;entryX=0;entryY=0.5;entryDx=0;entryDy=0;exitX=0;exitY=0.5;exitDx=0;exitDy=0;" parent="1" source="Wdy_xFRBNVWLUyz9GwH2-6" target="Hp7_mJl83ue9tpAKIguK-284" edge="1">
          <mxGeometry width="100" height="100" relative="1" as="geometry">
            <mxPoint x="2694" y="246" as="sourcePoint" />
            <mxPoint x="2802" y="489" as="targetPoint" />
            <Array as="points">
              <mxPoint x="2669" y="247" />
              <mxPoint x="2669" y="480" />
              <mxPoint x="2358" y="480" />
              <mxPoint x="2358" y="537" />
            </Array>
          </mxGeometry>
        </mxCell>
        <mxCell id="Wdy_xFRBNVWLUyz9GwH2-47" value="Рецидивист" style="shape=table;startSize=30;container=1;collapsible=1;childLayout=tableLayout;fixedRows=1;rowLines=0;fontStyle=1;align=center;resizeLast=1;html=1;fillColor=#fad9d5;strokeColor=#ae4132;" parent="1" vertex="1">
          <mxGeometry x="63" y="174" width="242" height="150" as="geometry" />
        </mxCell>
        <mxCell id="Wdy_xFRBNVWLUyz9GwH2-48" value="" style="shape=tableRow;horizontal=0;startSize=0;swimlaneHead=0;swimlaneBody=0;fillColor=none;collapsible=0;dropTarget=0;points=[[0,0.5],[1,0.5]];portConstraint=eastwest;top=0;left=0;right=0;bottom=1;" parent="Wdy_xFRBNVWLUyz9GwH2-47" vertex="1">
          <mxGeometry y="30" width="242" height="30" as="geometry" />
        </mxCell>
        <mxCell id="Wdy_xFRBNVWLUyz9GwH2-49" value="PK" style="shape=partialRectangle;connectable=0;fillColor=none;top=0;left=0;bottom=0;right=0;fontStyle=1;overflow=hidden;whiteSpace=wrap;html=1;" parent="Wdy_xFRBNVWLUyz9GwH2-48" vertex="1">
          <mxGeometry width="30" height="30" as="geometry">
            <mxRectangle width="30" height="30" as="alternateBounds" />
          </mxGeometry>
        </mxCell>
        <mxCell id="Wdy_xFRBNVWLUyz9GwH2-50" value="id" style="shape=partialRectangle;connectable=0;fillColor=none;top=0;left=0;bottom=0;right=0;align=left;spacingLeft=6;fontStyle=5;overflow=hidden;whiteSpace=wrap;html=1;" parent="Wdy_xFRBNVWLUyz9GwH2-48" vertex="1">
          <mxGeometry x="30" width="105.14285714285705" height="30" as="geometry">
            <mxRectangle width="105.14285714285705" height="30" as="alternateBounds" />
          </mxGeometry>
        </mxCell>
        <mxCell id="Wdy_xFRBNVWLUyz9GwH2-51" value="int" style="shape=partialRectangle;connectable=0;fillColor=none;top=0;left=0;bottom=0;right=0;align=left;spacingLeft=6;fontStyle=5;overflow=hidden;whiteSpace=wrap;html=1;" parent="Wdy_xFRBNVWLUyz9GwH2-48" vertex="1">
          <mxGeometry x="135.14285714285705" width="106.85714285714295" height="30" as="geometry">
            <mxRectangle width="106.85714285714295" height="30" as="alternateBounds" />
          </mxGeometry>
        </mxCell>
        <mxCell id="Wdy_xFRBNVWLUyz9GwH2-52" value="" style="shape=tableRow;horizontal=0;startSize=0;swimlaneHead=0;swimlaneBody=0;fillColor=none;collapsible=0;dropTarget=0;points=[[0,0.5],[1,0.5]];portConstraint=eastwest;top=0;left=0;right=0;bottom=0;" parent="Wdy_xFRBNVWLUyz9GwH2-47" vertex="1">
          <mxGeometry y="60" width="242" height="30" as="geometry" />
        </mxCell>
        <mxCell id="Wdy_xFRBNVWLUyz9GwH2-53" value="" style="shape=partialRectangle;connectable=0;fillColor=none;top=0;left=0;bottom=0;right=0;editable=1;overflow=hidden;whiteSpace=wrap;html=1;" parent="Wdy_xFRBNVWLUyz9GwH2-52" vertex="1">
          <mxGeometry width="30" height="30" as="geometry">
            <mxRectangle width="30" height="30" as="alternateBounds" />
          </mxGeometry>
        </mxCell>
        <mxCell id="Wdy_xFRBNVWLUyz9GwH2-54" value="ФИО" style="shape=partialRectangle;connectable=0;fillColor=none;top=0;left=0;bottom=0;right=0;align=left;spacingLeft=6;overflow=hidden;whiteSpace=wrap;html=1;" parent="Wdy_xFRBNVWLUyz9GwH2-52" vertex="1">
          <mxGeometry x="30" width="105.14285714285705" height="30" as="geometry">
            <mxRectangle width="105.14285714285705" height="30" as="alternateBounds" />
          </mxGeometry>
        </mxCell>
        <mxCell id="Wdy_xFRBNVWLUyz9GwH2-55" value="string" style="shape=partialRectangle;connectable=0;fillColor=none;top=0;left=0;bottom=0;right=0;align=left;spacingLeft=6;overflow=hidden;whiteSpace=wrap;html=1;" parent="Wdy_xFRBNVWLUyz9GwH2-52" vertex="1">
          <mxGeometry x="135.14285714285705" width="106.85714285714295" height="30" as="geometry">
            <mxRectangle width="106.85714285714295" height="30" as="alternateBounds" />
          </mxGeometry>
        </mxCell>
        <mxCell id="Wdy_xFRBNVWLUyz9GwH2-56" value="" style="shape=tableRow;horizontal=0;startSize=0;swimlaneHead=0;swimlaneBody=0;fillColor=none;collapsible=0;dropTarget=0;points=[[0,0.5],[1,0.5]];portConstraint=eastwest;top=0;left=0;right=0;bottom=0;" parent="Wdy_xFRBNVWLUyz9GwH2-47" vertex="1">
          <mxGeometry y="90" width="242" height="30" as="geometry" />
        </mxCell>
        <mxCell id="Wdy_xFRBNVWLUyz9GwH2-57" value="" style="shape=partialRectangle;connectable=0;fillColor=none;top=0;left=0;bottom=0;right=0;editable=1;overflow=hidden;whiteSpace=wrap;html=1;" parent="Wdy_xFRBNVWLUyz9GwH2-56" vertex="1">
          <mxGeometry width="30" height="30" as="geometry">
            <mxRectangle width="30" height="30" as="alternateBounds" />
          </mxGeometry>
        </mxCell>
        <mxCell id="Wdy_xFRBNVWLUyz9GwH2-58" value="Дата рождения" style="shape=partialRectangle;connectable=0;fillColor=none;top=0;left=0;bottom=0;right=0;align=left;spacingLeft=6;overflow=hidden;whiteSpace=wrap;html=1;" parent="Wdy_xFRBNVWLUyz9GwH2-56" vertex="1">
          <mxGeometry x="30" width="105.14285714285705" height="30" as="geometry">
            <mxRectangle width="105.14285714285705" height="30" as="alternateBounds" />
          </mxGeometry>
        </mxCell>
        <mxCell id="Wdy_xFRBNVWLUyz9GwH2-59" value="date" style="shape=partialRectangle;connectable=0;fillColor=none;top=0;left=0;bottom=0;right=0;align=left;spacingLeft=6;overflow=hidden;whiteSpace=wrap;html=1;" parent="Wdy_xFRBNVWLUyz9GwH2-56" vertex="1">
          <mxGeometry x="135.14285714285705" width="106.85714285714295" height="30" as="geometry">
            <mxRectangle width="106.85714285714295" height="30" as="alternateBounds" />
          </mxGeometry>
        </mxCell>
        <mxCell id="Wdy_xFRBNVWLUyz9GwH2-60" value="" style="shape=tableRow;horizontal=0;startSize=0;swimlaneHead=0;swimlaneBody=0;fillColor=none;collapsible=0;dropTarget=0;points=[[0,0.5],[1,0.5]];portConstraint=eastwest;top=0;left=0;right=0;bottom=0;" parent="Wdy_xFRBNVWLUyz9GwH2-47" vertex="1">
          <mxGeometry y="120" width="242" height="30" as="geometry" />
        </mxCell>
        <mxCell id="Wdy_xFRBNVWLUyz9GwH2-61" value="" style="shape=partialRectangle;connectable=0;fillColor=none;top=0;left=0;bottom=0;right=0;editable=1;overflow=hidden;whiteSpace=wrap;html=1;" parent="Wdy_xFRBNVWLUyz9GwH2-60" vertex="1">
          <mxGeometry width="30" height="30" as="geometry">
            <mxRectangle width="30" height="30" as="alternateBounds" />
          </mxGeometry>
        </mxCell>
        <mxCell id="Wdy_xFRBNVWLUyz9GwH2-62" value="Пол" style="shape=partialRectangle;connectable=0;fillColor=none;top=0;left=0;bottom=0;right=0;align=left;spacingLeft=6;overflow=hidden;whiteSpace=wrap;html=1;" parent="Wdy_xFRBNVWLUyz9GwH2-60" vertex="1">
          <mxGeometry x="30" width="105.14285714285705" height="30" as="geometry">
            <mxRectangle width="105.14285714285705" height="30" as="alternateBounds" />
          </mxGeometry>
        </mxCell>
        <mxCell id="Wdy_xFRBNVWLUyz9GwH2-63" value="enum" style="shape=partialRectangle;connectable=0;fillColor=none;top=0;left=0;bottom=0;right=0;align=left;spacingLeft=6;overflow=hidden;whiteSpace=wrap;html=1;" parent="Wdy_xFRBNVWLUyz9GwH2-60" vertex="1">
          <mxGeometry x="135.14285714285705" width="106.85714285714295" height="30" as="geometry">
            <mxRectangle width="106.85714285714295" height="30" as="alternateBounds" />
          </mxGeometry>
        </mxCell>
        <mxCell id="Wdy_xFRBNVWLUyz9GwH2-64" value="Дело" style="shape=table;startSize=30;container=1;collapsible=1;childLayout=tableLayout;fixedRows=1;rowLines=0;fontStyle=1;align=center;resizeLast=1;html=1;fillColor=#fad9d5;strokeColor=#ae4132;" parent="1" vertex="1">
          <mxGeometry x="619" y="150" width="338" height="217" as="geometry" />
        </mxCell>
        <mxCell id="Wdy_xFRBNVWLUyz9GwH2-65" value="" style="shape=tableRow;horizontal=0;startSize=0;swimlaneHead=0;swimlaneBody=0;fillColor=none;collapsible=0;dropTarget=0;points=[[0,0.5],[1,0.5]];portConstraint=eastwest;top=0;left=0;right=0;bottom=1;" parent="Wdy_xFRBNVWLUyz9GwH2-64" vertex="1">
          <mxGeometry y="30" width="338" height="30" as="geometry" />
        </mxCell>
        <mxCell id="Wdy_xFRBNVWLUyz9GwH2-66" value="PK" style="shape=partialRectangle;connectable=0;fillColor=none;top=0;left=0;bottom=0;right=0;fontStyle=1;overflow=hidden;whiteSpace=wrap;html=1;" parent="Wdy_xFRBNVWLUyz9GwH2-65" vertex="1">
          <mxGeometry width="30" height="30" as="geometry">
            <mxRectangle width="30" height="30" as="alternateBounds" />
          </mxGeometry>
        </mxCell>
        <mxCell id="Wdy_xFRBNVWLUyz9GwH2-67" value="id" style="shape=partialRectangle;connectable=0;fillColor=none;top=0;left=0;bottom=0;right=0;align=left;spacingLeft=6;fontStyle=5;overflow=hidden;whiteSpace=wrap;html=1;" parent="Wdy_xFRBNVWLUyz9GwH2-65" vertex="1">
          <mxGeometry x="30" width="150" height="30" as="geometry">
            <mxRectangle width="150" height="30" as="alternateBounds" />
          </mxGeometry>
        </mxCell>
        <mxCell id="Wdy_xFRBNVWLUyz9GwH2-68" value="int" style="shape=partialRectangle;connectable=0;fillColor=none;top=0;left=0;bottom=0;right=0;align=left;spacingLeft=6;fontStyle=5;overflow=hidden;whiteSpace=wrap;html=1;" parent="Wdy_xFRBNVWLUyz9GwH2-65" vertex="1">
          <mxGeometry x="180" width="158" height="30" as="geometry">
            <mxRectangle width="158" height="30" as="alternateBounds" />
          </mxGeometry>
        </mxCell>
        <mxCell id="Wdy_xFRBNVWLUyz9GwH2-69" value="" style="shape=tableRow;horizontal=0;startSize=0;swimlaneHead=0;swimlaneBody=0;fillColor=none;collapsible=0;dropTarget=0;points=[[0,0.5],[1,0.5]];portConstraint=eastwest;top=0;left=0;right=0;bottom=0;" parent="Wdy_xFRBNVWLUyz9GwH2-64" vertex="1">
          <mxGeometry y="60" width="338" height="30" as="geometry" />
        </mxCell>
        <mxCell id="Wdy_xFRBNVWLUyz9GwH2-70" value="FK" style="shape=partialRectangle;connectable=0;fillColor=none;top=0;left=0;bottom=0;right=0;editable=1;overflow=hidden;whiteSpace=wrap;html=1;" parent="Wdy_xFRBNVWLUyz9GwH2-69" vertex="1">
          <mxGeometry width="30" height="30" as="geometry">
            <mxRectangle width="30" height="30" as="alternateBounds" />
          </mxGeometry>
        </mxCell>
        <mxCell id="Wdy_xFRBNVWLUyz9GwH2-71" value="id рецидивиста" style="shape=partialRectangle;connectable=0;fillColor=none;top=0;left=0;bottom=0;right=0;align=left;spacingLeft=6;overflow=hidden;whiteSpace=wrap;html=1;" parent="Wdy_xFRBNVWLUyz9GwH2-69" vertex="1">
          <mxGeometry x="30" width="150" height="30" as="geometry">
            <mxRectangle width="150" height="30" as="alternateBounds" />
          </mxGeometry>
        </mxCell>
        <mxCell id="Wdy_xFRBNVWLUyz9GwH2-72" value="int" style="shape=partialRectangle;connectable=0;fillColor=none;top=0;left=0;bottom=0;right=0;align=left;spacingLeft=6;overflow=hidden;whiteSpace=wrap;html=1;" parent="Wdy_xFRBNVWLUyz9GwH2-69" vertex="1">
          <mxGeometry x="180" width="158" height="30" as="geometry">
            <mxRectangle width="158" height="30" as="alternateBounds" />
          </mxGeometry>
        </mxCell>
        <mxCell id="Wdy_xFRBNVWLUyz9GwH2-77" value="" style="shape=tableRow;horizontal=0;startSize=0;swimlaneHead=0;swimlaneBody=0;fillColor=none;collapsible=0;dropTarget=0;points=[[0,0.5],[1,0.5]];portConstraint=eastwest;top=0;left=0;right=0;bottom=0;" parent="Wdy_xFRBNVWLUyz9GwH2-64" vertex="1">
          <mxGeometry y="90" width="338" height="30" as="geometry" />
        </mxCell>
        <mxCell id="Wdy_xFRBNVWLUyz9GwH2-78" value="" style="shape=partialRectangle;connectable=0;fillColor=none;top=0;left=0;bottom=0;right=0;editable=1;overflow=hidden;whiteSpace=wrap;html=1;" parent="Wdy_xFRBNVWLUyz9GwH2-77" vertex="1">
          <mxGeometry width="30" height="30" as="geometry">
            <mxRectangle width="30" height="30" as="alternateBounds" />
          </mxGeometry>
        </mxCell>
        <mxCell id="Wdy_xFRBNVWLUyz9GwH2-79" value="Дата преступления" style="shape=partialRectangle;connectable=0;fillColor=none;top=0;left=0;bottom=0;right=0;align=left;spacingLeft=6;overflow=hidden;whiteSpace=wrap;html=1;" parent="Wdy_xFRBNVWLUyz9GwH2-77" vertex="1">
          <mxGeometry x="30" width="150" height="30" as="geometry">
            <mxRectangle width="150" height="30" as="alternateBounds" />
          </mxGeometry>
        </mxCell>
        <mxCell id="Wdy_xFRBNVWLUyz9GwH2-80" value="date" style="shape=partialRectangle;connectable=0;fillColor=none;top=0;left=0;bottom=0;right=0;align=left;spacingLeft=6;overflow=hidden;whiteSpace=wrap;html=1;" parent="Wdy_xFRBNVWLUyz9GwH2-77" vertex="1">
          <mxGeometry x="180" width="158" height="30" as="geometry">
            <mxRectangle width="158" height="30" as="alternateBounds" />
          </mxGeometry>
        </mxCell>
        <mxCell id="Wdy_xFRBNVWLUyz9GwH2-81" style="shape=tableRow;horizontal=0;startSize=0;swimlaneHead=0;swimlaneBody=0;fillColor=none;collapsible=0;dropTarget=0;points=[[0,0.5],[1,0.5]];portConstraint=eastwest;top=0;left=0;right=0;bottom=0;" parent="Wdy_xFRBNVWLUyz9GwH2-64" vertex="1">
          <mxGeometry y="120" width="338" height="30" as="geometry" />
        </mxCell>
        <mxCell id="Wdy_xFRBNVWLUyz9GwH2-82" style="shape=partialRectangle;connectable=0;fillColor=none;top=0;left=0;bottom=0;right=0;editable=1;overflow=hidden;whiteSpace=wrap;html=1;" parent="Wdy_xFRBNVWLUyz9GwH2-81" vertex="1">
          <mxGeometry width="30" height="30" as="geometry">
            <mxRectangle width="30" height="30" as="alternateBounds" />
          </mxGeometry>
        </mxCell>
        <mxCell id="Wdy_xFRBNVWLUyz9GwH2-83" value="Дата начала срока" style="shape=partialRectangle;connectable=0;fillColor=none;top=0;left=0;bottom=0;right=0;align=left;spacingLeft=6;overflow=hidden;whiteSpace=wrap;html=1;" parent="Wdy_xFRBNVWLUyz9GwH2-81" vertex="1">
          <mxGeometry x="30" width="150" height="30" as="geometry">
            <mxRectangle width="150" height="30" as="alternateBounds" />
          </mxGeometry>
        </mxCell>
        <mxCell id="Wdy_xFRBNVWLUyz9GwH2-84" value="date" style="shape=partialRectangle;connectable=0;fillColor=none;top=0;left=0;bottom=0;right=0;align=left;spacingLeft=6;overflow=hidden;whiteSpace=wrap;html=1;" parent="Wdy_xFRBNVWLUyz9GwH2-81" vertex="1">
          <mxGeometry x="180" width="158" height="30" as="geometry">
            <mxRectangle width="158" height="30" as="alternateBounds" />
          </mxGeometry>
        </mxCell>
        <mxCell id="Wdy_xFRBNVWLUyz9GwH2-85" style="shape=tableRow;horizontal=0;startSize=0;swimlaneHead=0;swimlaneBody=0;fillColor=none;collapsible=0;dropTarget=0;points=[[0,0.5],[1,0.5]];portConstraint=eastwest;top=0;left=0;right=0;bottom=0;" parent="Wdy_xFRBNVWLUyz9GwH2-64" vertex="1">
          <mxGeometry y="150" width="338" height="30" as="geometry" />
        </mxCell>
        <mxCell id="Wdy_xFRBNVWLUyz9GwH2-86" style="shape=partialRectangle;connectable=0;fillColor=none;top=0;left=0;bottom=0;right=0;editable=1;overflow=hidden;whiteSpace=wrap;html=1;" parent="Wdy_xFRBNVWLUyz9GwH2-85" vertex="1">
          <mxGeometry width="30" height="30" as="geometry">
            <mxRectangle width="30" height="30" as="alternateBounds" />
          </mxGeometry>
        </mxCell>
        <mxCell id="Wdy_xFRBNVWLUyz9GwH2-87" value="Дата окончания срока" style="shape=partialRectangle;connectable=0;fillColor=none;top=0;left=0;bottom=0;right=0;align=left;spacingLeft=6;overflow=hidden;whiteSpace=wrap;html=1;" parent="Wdy_xFRBNVWLUyz9GwH2-85" vertex="1">
          <mxGeometry x="30" width="150" height="30" as="geometry">
            <mxRectangle width="150" height="30" as="alternateBounds" />
          </mxGeometry>
        </mxCell>
        <mxCell id="Wdy_xFRBNVWLUyz9GwH2-88" value="date" style="shape=partialRectangle;connectable=0;fillColor=none;top=0;left=0;bottom=0;right=0;align=left;spacingLeft=6;overflow=hidden;whiteSpace=wrap;html=1;" parent="Wdy_xFRBNVWLUyz9GwH2-85" vertex="1">
          <mxGeometry x="180" width="158" height="30" as="geometry">
            <mxRectangle width="158" height="30" as="alternateBounds" />
          </mxGeometry>
        </mxCell>
        <mxCell id="Wdy_xFRBNVWLUyz9GwH2-89" style="shape=tableRow;horizontal=0;startSize=0;swimlaneHead=0;swimlaneBody=0;fillColor=none;collapsible=0;dropTarget=0;points=[[0,0.5],[1,0.5]];portConstraint=eastwest;top=0;left=0;right=0;bottom=0;" parent="Wdy_xFRBNVWLUyz9GwH2-64" vertex="1">
          <mxGeometry y="180" width="338" height="30" as="geometry" />
        </mxCell>
        <mxCell id="Wdy_xFRBNVWLUyz9GwH2-90" style="shape=partialRectangle;connectable=0;fillColor=none;top=0;left=0;bottom=0;right=0;editable=1;overflow=hidden;whiteSpace=wrap;html=1;" parent="Wdy_xFRBNVWLUyz9GwH2-89" vertex="1">
          <mxGeometry width="30" height="30" as="geometry">
            <mxRectangle width="30" height="30" as="alternateBounds" />
          </mxGeometry>
        </mxCell>
        <mxCell id="Wdy_xFRBNVWLUyz9GwH2-91" value="Описание&amp;nbsp;" style="shape=partialRectangle;connectable=0;fillColor=none;top=0;left=0;bottom=0;right=0;align=left;spacingLeft=6;overflow=hidden;whiteSpace=wrap;html=1;" parent="Wdy_xFRBNVWLUyz9GwH2-89" vertex="1">
          <mxGeometry x="30" width="150" height="30" as="geometry">
            <mxRectangle width="150" height="30" as="alternateBounds" />
          </mxGeometry>
        </mxCell>
        <mxCell id="Wdy_xFRBNVWLUyz9GwH2-92" value="string" style="shape=partialRectangle;connectable=0;fillColor=none;top=0;left=0;bottom=0;right=0;align=left;spacingLeft=6;overflow=hidden;whiteSpace=wrap;html=1;" parent="Wdy_xFRBNVWLUyz9GwH2-89" vertex="1">
          <mxGeometry x="180" width="158" height="30" as="geometry">
            <mxRectangle width="158" height="30" as="alternateBounds" />
          </mxGeometry>
        </mxCell>
        <mxCell id="Wdy_xFRBNVWLUyz9GwH2-93" value="Статья по делу" style="shape=table;startSize=30;container=1;collapsible=1;childLayout=tableLayout;fixedRows=1;rowLines=0;fontStyle=1;align=center;resizeLast=1;html=1;fillColor=#fad9d5;strokeColor=#ae4132;" parent="1" vertex="1">
          <mxGeometry x="620" y="477" width="338" height="97" as="geometry" />
        </mxCell>
        <mxCell id="Wdy_xFRBNVWLUyz9GwH2-94" value="" style="shape=tableRow;horizontal=0;startSize=0;swimlaneHead=0;swimlaneBody=0;fillColor=none;collapsible=0;dropTarget=0;points=[[0,0.5],[1,0.5]];portConstraint=eastwest;top=0;left=0;right=0;bottom=1;" parent="Wdy_xFRBNVWLUyz9GwH2-93" vertex="1">
          <mxGeometry y="30" width="338" height="30" as="geometry" />
        </mxCell>
        <mxCell id="Wdy_xFRBNVWLUyz9GwH2-95" value="FK" style="shape=partialRectangle;connectable=0;fillColor=none;top=0;left=0;bottom=0;right=0;fontStyle=1;overflow=hidden;whiteSpace=wrap;html=1;" parent="Wdy_xFRBNVWLUyz9GwH2-94" vertex="1">
          <mxGeometry width="30" height="30" as="geometry">
            <mxRectangle width="30" height="30" as="alternateBounds" />
          </mxGeometry>
        </mxCell>
        <mxCell id="Wdy_xFRBNVWLUyz9GwH2-96" value="id дела" style="shape=partialRectangle;connectable=0;fillColor=none;top=0;left=0;bottom=0;right=0;align=left;spacingLeft=6;fontStyle=5;overflow=hidden;whiteSpace=wrap;html=1;" parent="Wdy_xFRBNVWLUyz9GwH2-94" vertex="1">
          <mxGeometry x="30" width="150" height="30" as="geometry">
            <mxRectangle width="150" height="30" as="alternateBounds" />
          </mxGeometry>
        </mxCell>
        <mxCell id="Wdy_xFRBNVWLUyz9GwH2-97" value="int" style="shape=partialRectangle;connectable=0;fillColor=none;top=0;left=0;bottom=0;right=0;align=left;spacingLeft=6;fontStyle=5;overflow=hidden;whiteSpace=wrap;html=1;" parent="Wdy_xFRBNVWLUyz9GwH2-94" vertex="1">
          <mxGeometry x="180" width="158" height="30" as="geometry">
            <mxRectangle width="158" height="30" as="alternateBounds" />
          </mxGeometry>
        </mxCell>
        <mxCell id="Wdy_xFRBNVWLUyz9GwH2-98" value="" style="shape=tableRow;horizontal=0;startSize=0;swimlaneHead=0;swimlaneBody=0;fillColor=none;collapsible=0;dropTarget=0;points=[[0,0.5],[1,0.5]];portConstraint=eastwest;top=0;left=0;right=0;bottom=0;" parent="Wdy_xFRBNVWLUyz9GwH2-93" vertex="1">
          <mxGeometry y="60" width="338" height="30" as="geometry" />
        </mxCell>
        <mxCell id="Wdy_xFRBNVWLUyz9GwH2-99" value="FK" style="shape=partialRectangle;connectable=0;fillColor=none;top=0;left=0;bottom=0;right=0;editable=1;overflow=hidden;whiteSpace=wrap;html=1;" parent="Wdy_xFRBNVWLUyz9GwH2-98" vertex="1">
          <mxGeometry width="30" height="30" as="geometry">
            <mxRectangle width="30" height="30" as="alternateBounds" />
          </mxGeometry>
        </mxCell>
        <mxCell id="Wdy_xFRBNVWLUyz9GwH2-100" value="id статьи" style="shape=partialRectangle;connectable=0;fillColor=none;top=0;left=0;bottom=0;right=0;align=left;spacingLeft=6;overflow=hidden;whiteSpace=wrap;html=1;" parent="Wdy_xFRBNVWLUyz9GwH2-98" vertex="1">
          <mxGeometry x="30" width="150" height="30" as="geometry">
            <mxRectangle width="150" height="30" as="alternateBounds" />
          </mxGeometry>
        </mxCell>
        <mxCell id="Wdy_xFRBNVWLUyz9GwH2-101" value="int" style="shape=partialRectangle;connectable=0;fillColor=none;top=0;left=0;bottom=0;right=0;align=left;spacingLeft=6;overflow=hidden;whiteSpace=wrap;html=1;" parent="Wdy_xFRBNVWLUyz9GwH2-98" vertex="1">
          <mxGeometry x="180" width="158" height="30" as="geometry">
            <mxRectangle width="158" height="30" as="alternateBounds" />
          </mxGeometry>
        </mxCell>
        <mxCell id="Wdy_xFRBNVWLUyz9GwH2-118" value="" style="edgeStyle=orthogonalEdgeStyle;fontSize=12;html=1;endArrow=ERoneToMany;startArrow=ERmandOne;rounded=0;exitX=1.003;exitY=0.656;exitDx=0;exitDy=0;exitPerimeter=0;" parent="1" source="Wdy_xFRBNVWLUyz9GwH2-48" target="Wdy_xFRBNVWLUyz9GwH2-69" edge="1">
          <mxGeometry width="100" height="100" relative="1" as="geometry">
            <mxPoint x="313" y="205" as="sourcePoint" />
            <mxPoint x="616" y="230" as="targetPoint" />
            <Array as="points">
              <mxPoint x="467" y="224" />
              <mxPoint x="467" y="224" />
            </Array>
          </mxGeometry>
        </mxCell>
        <mxCell id="Wdy_xFRBNVWLUyz9GwH2-119" value="" style="edgeStyle=orthogonalEdgeStyle;fontSize=12;html=1;endArrow=ERoneToMany;startArrow=ERmandOne;rounded=0;exitX=0;exitY=0.5;exitDx=0;exitDy=0;entryX=0;entryY=0.5;entryDx=0;entryDy=0;" parent="1" source="Wdy_xFRBNVWLUyz9GwH2-65" target="Wdy_xFRBNVWLUyz9GwH2-94" edge="1">
          <mxGeometry width="100" height="100" relative="1" as="geometry">
            <mxPoint x="316" y="234" as="sourcePoint" />
            <mxPoint x="629" y="234" as="targetPoint" />
            <Array as="points">
              <mxPoint x="569" y="195" />
              <mxPoint x="569" y="522" />
            </Array>
          </mxGeometry>
        </mxCell>
        <mxCell id="Wdy_xFRBNVWLUyz9GwH2-120" value="Статья УК" style="shape=table;startSize=30;container=1;collapsible=1;childLayout=tableLayout;fixedRows=1;rowLines=0;fontStyle=1;align=center;resizeLast=1;html=1;fillColor=#fad9d5;strokeColor=#ae4132;" parent="1" vertex="1">
          <mxGeometry x="619" y="643" width="266" height="186" as="geometry" />
        </mxCell>
        <mxCell id="Wdy_xFRBNVWLUyz9GwH2-121" value="" style="shape=tableRow;horizontal=0;startSize=0;swimlaneHead=0;swimlaneBody=0;fillColor=none;collapsible=0;dropTarget=0;points=[[0,0.5],[1,0.5]];portConstraint=eastwest;top=0;left=0;right=0;bottom=1;" parent="Wdy_xFRBNVWLUyz9GwH2-120" vertex="1">
          <mxGeometry y="30" width="266" height="36" as="geometry" />
        </mxCell>
        <mxCell id="Wdy_xFRBNVWLUyz9GwH2-122" value="PK" style="shape=partialRectangle;connectable=0;fillColor=none;top=0;left=0;bottom=0;right=0;fontStyle=1;overflow=hidden;whiteSpace=wrap;html=1;" parent="Wdy_xFRBNVWLUyz9GwH2-121" vertex="1">
          <mxGeometry width="30" height="36" as="geometry">
            <mxRectangle width="30" height="36" as="alternateBounds" />
          </mxGeometry>
        </mxCell>
        <mxCell id="Wdy_xFRBNVWLUyz9GwH2-123" value="id" style="shape=partialRectangle;connectable=0;fillColor=none;top=0;left=0;bottom=0;right=0;align=left;spacingLeft=6;fontStyle=5;overflow=hidden;whiteSpace=wrap;html=1;" parent="Wdy_xFRBNVWLUyz9GwH2-121" vertex="1">
          <mxGeometry x="30" width="150" height="36" as="geometry">
            <mxRectangle width="150" height="36" as="alternateBounds" />
          </mxGeometry>
        </mxCell>
        <mxCell id="Wdy_xFRBNVWLUyz9GwH2-124" value="int" style="shape=partialRectangle;connectable=0;fillColor=none;top=0;left=0;bottom=0;right=0;align=left;spacingLeft=6;fontStyle=5;overflow=hidden;whiteSpace=wrap;html=1;" parent="Wdy_xFRBNVWLUyz9GwH2-121" vertex="1">
          <mxGeometry x="180" width="86" height="36" as="geometry">
            <mxRectangle width="86" height="36" as="alternateBounds" />
          </mxGeometry>
        </mxCell>
        <mxCell id="Wdy_xFRBNVWLUyz9GwH2-125" value="" style="shape=tableRow;horizontal=0;startSize=0;swimlaneHead=0;swimlaneBody=0;fillColor=none;collapsible=0;dropTarget=0;points=[[0,0.5],[1,0.5]];portConstraint=eastwest;top=0;left=0;right=0;bottom=0;" parent="Wdy_xFRBNVWLUyz9GwH2-120" vertex="1">
          <mxGeometry y="66" width="266" height="30" as="geometry" />
        </mxCell>
        <mxCell id="Wdy_xFRBNVWLUyz9GwH2-126" value="" style="shape=partialRectangle;connectable=0;fillColor=none;top=0;left=0;bottom=0;right=0;editable=1;overflow=hidden;whiteSpace=wrap;html=1;" parent="Wdy_xFRBNVWLUyz9GwH2-125" vertex="1">
          <mxGeometry width="30" height="30" as="geometry">
            <mxRectangle width="30" height="30" as="alternateBounds" />
          </mxGeometry>
        </mxCell>
        <mxCell id="Wdy_xFRBNVWLUyz9GwH2-127" value="Название" style="shape=partialRectangle;connectable=0;fillColor=none;top=0;left=0;bottom=0;right=0;align=left;spacingLeft=6;overflow=hidden;whiteSpace=wrap;html=1;" parent="Wdy_xFRBNVWLUyz9GwH2-125" vertex="1">
          <mxGeometry x="30" width="150" height="30" as="geometry">
            <mxRectangle width="150" height="30" as="alternateBounds" />
          </mxGeometry>
        </mxCell>
        <mxCell id="Wdy_xFRBNVWLUyz9GwH2-128" value="string" style="shape=partialRectangle;connectable=0;fillColor=none;top=0;left=0;bottom=0;right=0;align=left;spacingLeft=6;overflow=hidden;whiteSpace=wrap;html=1;" parent="Wdy_xFRBNVWLUyz9GwH2-125" vertex="1">
          <mxGeometry x="180" width="86" height="30" as="geometry">
            <mxRectangle width="86" height="30" as="alternateBounds" />
          </mxGeometry>
        </mxCell>
        <mxCell id="Wdy_xFRBNVWLUyz9GwH2-129" value="" style="shape=tableRow;horizontal=0;startSize=0;swimlaneHead=0;swimlaneBody=0;fillColor=none;collapsible=0;dropTarget=0;points=[[0,0.5],[1,0.5]];portConstraint=eastwest;top=0;left=0;right=0;bottom=0;" parent="Wdy_xFRBNVWLUyz9GwH2-120" vertex="1">
          <mxGeometry y="96" width="266" height="30" as="geometry" />
        </mxCell>
        <mxCell id="Wdy_xFRBNVWLUyz9GwH2-130" value="" style="shape=partialRectangle;connectable=0;fillColor=none;top=0;left=0;bottom=0;right=0;editable=1;overflow=hidden;whiteSpace=wrap;html=1;" parent="Wdy_xFRBNVWLUyz9GwH2-129" vertex="1">
          <mxGeometry width="30" height="30" as="geometry">
            <mxRectangle width="30" height="30" as="alternateBounds" />
          </mxGeometry>
        </mxCell>
        <mxCell id="Wdy_xFRBNVWLUyz9GwH2-131" value="Описание" style="shape=partialRectangle;connectable=0;fillColor=none;top=0;left=0;bottom=0;right=0;align=left;spacingLeft=6;overflow=hidden;whiteSpace=wrap;html=1;" parent="Wdy_xFRBNVWLUyz9GwH2-129" vertex="1">
          <mxGeometry x="30" width="150" height="30" as="geometry">
            <mxRectangle width="150" height="30" as="alternateBounds" />
          </mxGeometry>
        </mxCell>
        <mxCell id="Wdy_xFRBNVWLUyz9GwH2-132" value="string" style="shape=partialRectangle;connectable=0;fillColor=none;top=0;left=0;bottom=0;right=0;align=left;spacingLeft=6;overflow=hidden;whiteSpace=wrap;html=1;" parent="Wdy_xFRBNVWLUyz9GwH2-129" vertex="1">
          <mxGeometry x="180" width="86" height="30" as="geometry">
            <mxRectangle width="86" height="30" as="alternateBounds" />
          </mxGeometry>
        </mxCell>
        <mxCell id="Wdy_xFRBNVWLUyz9GwH2-133" style="shape=tableRow;horizontal=0;startSize=0;swimlaneHead=0;swimlaneBody=0;fillColor=none;collapsible=0;dropTarget=0;points=[[0,0.5],[1,0.5]];portConstraint=eastwest;top=0;left=0;right=0;bottom=0;" parent="Wdy_xFRBNVWLUyz9GwH2-120" vertex="1">
          <mxGeometry y="126" width="266" height="30" as="geometry" />
        </mxCell>
        <mxCell id="Wdy_xFRBNVWLUyz9GwH2-134" style="shape=partialRectangle;connectable=0;fillColor=none;top=0;left=0;bottom=0;right=0;editable=1;overflow=hidden;whiteSpace=wrap;html=1;" parent="Wdy_xFRBNVWLUyz9GwH2-133" vertex="1">
          <mxGeometry width="30" height="30" as="geometry">
            <mxRectangle width="30" height="30" as="alternateBounds" />
          </mxGeometry>
        </mxCell>
        <mxCell id="Wdy_xFRBNVWLUyz9GwH2-135" value="Дата изменения" style="shape=partialRectangle;connectable=0;fillColor=none;top=0;left=0;bottom=0;right=0;align=left;spacingLeft=6;overflow=hidden;whiteSpace=wrap;html=1;" parent="Wdy_xFRBNVWLUyz9GwH2-133" vertex="1">
          <mxGeometry x="30" width="150" height="30" as="geometry">
            <mxRectangle width="150" height="30" as="alternateBounds" />
          </mxGeometry>
        </mxCell>
        <mxCell id="Wdy_xFRBNVWLUyz9GwH2-136" value="date" style="shape=partialRectangle;connectable=0;fillColor=none;top=0;left=0;bottom=0;right=0;align=left;spacingLeft=6;overflow=hidden;whiteSpace=wrap;html=1;" parent="Wdy_xFRBNVWLUyz9GwH2-133" vertex="1">
          <mxGeometry x="180" width="86" height="30" as="geometry">
            <mxRectangle width="86" height="30" as="alternateBounds" />
          </mxGeometry>
        </mxCell>
        <mxCell id="Wdy_xFRBNVWLUyz9GwH2-141" style="shape=tableRow;horizontal=0;startSize=0;swimlaneHead=0;swimlaneBody=0;fillColor=none;collapsible=0;dropTarget=0;points=[[0,0.5],[1,0.5]];portConstraint=eastwest;top=0;left=0;right=0;bottom=0;" parent="Wdy_xFRBNVWLUyz9GwH2-120" vertex="1">
          <mxGeometry y="156" width="266" height="30" as="geometry" />
        </mxCell>
        <mxCell id="Wdy_xFRBNVWLUyz9GwH2-142" style="shape=partialRectangle;connectable=0;fillColor=none;top=0;left=0;bottom=0;right=0;editable=1;overflow=hidden;whiteSpace=wrap;html=1;" parent="Wdy_xFRBNVWLUyz9GwH2-141" vertex="1">
          <mxGeometry width="30" height="30" as="geometry">
            <mxRectangle width="30" height="30" as="alternateBounds" />
          </mxGeometry>
        </mxCell>
        <mxCell id="Wdy_xFRBNVWLUyz9GwH2-143" value="Статус" style="shape=partialRectangle;connectable=0;fillColor=none;top=0;left=0;bottom=0;right=0;align=left;spacingLeft=6;overflow=hidden;whiteSpace=wrap;html=1;" parent="Wdy_xFRBNVWLUyz9GwH2-141" vertex="1">
          <mxGeometry x="30" width="150" height="30" as="geometry">
            <mxRectangle width="150" height="30" as="alternateBounds" />
          </mxGeometry>
        </mxCell>
        <mxCell id="Wdy_xFRBNVWLUyz9GwH2-144" value="string" style="shape=partialRectangle;connectable=0;fillColor=none;top=0;left=0;bottom=0;right=0;align=left;spacingLeft=6;overflow=hidden;whiteSpace=wrap;html=1;" parent="Wdy_xFRBNVWLUyz9GwH2-141" vertex="1">
          <mxGeometry x="180" width="86" height="30" as="geometry">
            <mxRectangle width="86" height="30" as="alternateBounds" />
          </mxGeometry>
        </mxCell>
        <mxCell id="Wdy_xFRBNVWLUyz9GwH2-145" value="" style="edgeStyle=orthogonalEdgeStyle;fontSize=12;html=1;endArrow=ERoneToMany;startArrow=ERmandOne;rounded=0;exitX=0;exitY=0.5;exitDx=0;exitDy=0;entryX=0;entryY=0.5;entryDx=0;entryDy=0;" parent="1" source="Wdy_xFRBNVWLUyz9GwH2-121" target="Wdy_xFRBNVWLUyz9GwH2-98" edge="1">
          <mxGeometry width="100" height="100" relative="1" as="geometry">
            <mxPoint x="629" y="205" as="sourcePoint" />
            <mxPoint x="630" y="532" as="targetPoint" />
            <Array as="points">
              <mxPoint x="570" y="691" />
              <mxPoint x="570" y="552" />
            </Array>
          </mxGeometry>
        </mxCell>
        <mxCell id="Wdy_xFRBNVWLUyz9GwH2-167" value="Отсидка" style="shape=table;startSize=30;container=1;collapsible=1;childLayout=tableLayout;fixedRows=1;rowLines=0;fontStyle=1;align=center;resizeLast=1;html=1;fillColor=#fad9d5;strokeColor=#ae4132;" parent="1" vertex="1">
          <mxGeometry x="1059" y="153" width="248" height="210" as="geometry" />
        </mxCell>
        <mxCell id="Wdy_xFRBNVWLUyz9GwH2-168" value="" style="shape=tableRow;horizontal=0;startSize=0;swimlaneHead=0;swimlaneBody=0;fillColor=none;collapsible=0;dropTarget=0;points=[[0,0.5],[1,0.5]];portConstraint=eastwest;top=0;left=0;right=0;bottom=1;" parent="Wdy_xFRBNVWLUyz9GwH2-167" vertex="1">
          <mxGeometry y="30" width="248" height="30" as="geometry" />
        </mxCell>
        <mxCell id="Wdy_xFRBNVWLUyz9GwH2-169" value="PK" style="shape=partialRectangle;connectable=0;fillColor=none;top=0;left=0;bottom=0;right=0;fontStyle=1;overflow=hidden;whiteSpace=wrap;html=1;" parent="Wdy_xFRBNVWLUyz9GwH2-168" vertex="1">
          <mxGeometry width="30" height="30" as="geometry">
            <mxRectangle width="30" height="30" as="alternateBounds" />
          </mxGeometry>
        </mxCell>
        <mxCell id="Wdy_xFRBNVWLUyz9GwH2-170" value="id" style="shape=partialRectangle;connectable=0;fillColor=none;top=0;left=0;bottom=0;right=0;align=left;spacingLeft=6;fontStyle=5;overflow=hidden;whiteSpace=wrap;html=1;" parent="Wdy_xFRBNVWLUyz9GwH2-168" vertex="1">
          <mxGeometry x="30" width="150" height="30" as="geometry">
            <mxRectangle width="150" height="30" as="alternateBounds" />
          </mxGeometry>
        </mxCell>
        <mxCell id="Wdy_xFRBNVWLUyz9GwH2-171" value="int" style="shape=partialRectangle;connectable=0;fillColor=none;top=0;left=0;bottom=0;right=0;align=left;spacingLeft=6;fontStyle=5;overflow=hidden;whiteSpace=wrap;html=1;" parent="Wdy_xFRBNVWLUyz9GwH2-168" vertex="1">
          <mxGeometry x="180" width="68" height="30" as="geometry">
            <mxRectangle width="68" height="30" as="alternateBounds" />
          </mxGeometry>
        </mxCell>
        <mxCell id="Wdy_xFRBNVWLUyz9GwH2-176" value="" style="shape=tableRow;horizontal=0;startSize=0;swimlaneHead=0;swimlaneBody=0;fillColor=none;collapsible=0;dropTarget=0;points=[[0,0.5],[1,0.5]];portConstraint=eastwest;top=0;left=0;right=0;bottom=0;" parent="Wdy_xFRBNVWLUyz9GwH2-167" vertex="1">
          <mxGeometry y="60" width="248" height="30" as="geometry" />
        </mxCell>
        <mxCell id="Wdy_xFRBNVWLUyz9GwH2-177" value="FK" style="shape=partialRectangle;connectable=0;fillColor=none;top=0;left=0;bottom=0;right=0;editable=1;overflow=hidden;whiteSpace=wrap;html=1;" parent="Wdy_xFRBNVWLUyz9GwH2-176" vertex="1">
          <mxGeometry width="30" height="30" as="geometry">
            <mxRectangle width="30" height="30" as="alternateBounds" />
          </mxGeometry>
        </mxCell>
        <mxCell id="Wdy_xFRBNVWLUyz9GwH2-178" value="id дела" style="shape=partialRectangle;connectable=0;fillColor=none;top=0;left=0;bottom=0;right=0;align=left;spacingLeft=6;overflow=hidden;whiteSpace=wrap;html=1;" parent="Wdy_xFRBNVWLUyz9GwH2-176" vertex="1">
          <mxGeometry x="30" width="150" height="30" as="geometry">
            <mxRectangle width="150" height="30" as="alternateBounds" />
          </mxGeometry>
        </mxCell>
        <mxCell id="Wdy_xFRBNVWLUyz9GwH2-179" value="int" style="shape=partialRectangle;connectable=0;fillColor=none;top=0;left=0;bottom=0;right=0;align=left;spacingLeft=6;overflow=hidden;whiteSpace=wrap;html=1;" parent="Wdy_xFRBNVWLUyz9GwH2-176" vertex="1">
          <mxGeometry x="180" width="68" height="30" as="geometry">
            <mxRectangle width="68" height="30" as="alternateBounds" />
          </mxGeometry>
        </mxCell>
        <mxCell id="Wdy_xFRBNVWLUyz9GwH2-188" style="shape=tableRow;horizontal=0;startSize=0;swimlaneHead=0;swimlaneBody=0;fillColor=none;collapsible=0;dropTarget=0;points=[[0,0.5],[1,0.5]];portConstraint=eastwest;top=0;left=0;right=0;bottom=0;" parent="Wdy_xFRBNVWLUyz9GwH2-167" vertex="1">
          <mxGeometry y="90" width="248" height="30" as="geometry" />
        </mxCell>
        <mxCell id="Wdy_xFRBNVWLUyz9GwH2-189" value="FK" style="shape=partialRectangle;connectable=0;fillColor=none;top=0;left=0;bottom=0;right=0;editable=1;overflow=hidden;whiteSpace=wrap;html=1;" parent="Wdy_xFRBNVWLUyz9GwH2-188" vertex="1">
          <mxGeometry width="30" height="30" as="geometry">
            <mxRectangle width="30" height="30" as="alternateBounds" />
          </mxGeometry>
        </mxCell>
        <mxCell id="Wdy_xFRBNVWLUyz9GwH2-190" value="Место" style="shape=partialRectangle;connectable=0;fillColor=none;top=0;left=0;bottom=0;right=0;align=left;spacingLeft=6;overflow=hidden;whiteSpace=wrap;html=1;" parent="Wdy_xFRBNVWLUyz9GwH2-188" vertex="1">
          <mxGeometry x="30" width="150" height="30" as="geometry">
            <mxRectangle width="150" height="30" as="alternateBounds" />
          </mxGeometry>
        </mxCell>
        <mxCell id="Wdy_xFRBNVWLUyz9GwH2-191" value="int" style="shape=partialRectangle;connectable=0;fillColor=none;top=0;left=0;bottom=0;right=0;align=left;spacingLeft=6;overflow=hidden;whiteSpace=wrap;html=1;" parent="Wdy_xFRBNVWLUyz9GwH2-188" vertex="1">
          <mxGeometry x="180" width="68" height="30" as="geometry">
            <mxRectangle width="68" height="30" as="alternateBounds" />
          </mxGeometry>
        </mxCell>
        <mxCell id="Wdy_xFRBNVWLUyz9GwH2-192" style="shape=tableRow;horizontal=0;startSize=0;swimlaneHead=0;swimlaneBody=0;fillColor=none;collapsible=0;dropTarget=0;points=[[0,0.5],[1,0.5]];portConstraint=eastwest;top=0;left=0;right=0;bottom=0;" parent="Wdy_xFRBNVWLUyz9GwH2-167" vertex="1">
          <mxGeometry y="120" width="248" height="30" as="geometry" />
        </mxCell>
        <mxCell id="Wdy_xFRBNVWLUyz9GwH2-193" style="shape=partialRectangle;connectable=0;fillColor=none;top=0;left=0;bottom=0;right=0;editable=1;overflow=hidden;whiteSpace=wrap;html=1;" parent="Wdy_xFRBNVWLUyz9GwH2-192" vertex="1">
          <mxGeometry width="30" height="30" as="geometry">
            <mxRectangle width="30" height="30" as="alternateBounds" />
          </mxGeometry>
        </mxCell>
        <mxCell id="Wdy_xFRBNVWLUyz9GwH2-194" value="Камера" style="shape=partialRectangle;connectable=0;fillColor=none;top=0;left=0;bottom=0;right=0;align=left;spacingLeft=6;overflow=hidden;whiteSpace=wrap;html=1;" parent="Wdy_xFRBNVWLUyz9GwH2-192" vertex="1">
          <mxGeometry x="30" width="150" height="30" as="geometry">
            <mxRectangle width="150" height="30" as="alternateBounds" />
          </mxGeometry>
        </mxCell>
        <mxCell id="Wdy_xFRBNVWLUyz9GwH2-195" value="int" style="shape=partialRectangle;connectable=0;fillColor=none;top=0;left=0;bottom=0;right=0;align=left;spacingLeft=6;overflow=hidden;whiteSpace=wrap;html=1;" parent="Wdy_xFRBNVWLUyz9GwH2-192" vertex="1">
          <mxGeometry x="180" width="68" height="30" as="geometry">
            <mxRectangle width="68" height="30" as="alternateBounds" />
          </mxGeometry>
        </mxCell>
        <mxCell id="Wdy_xFRBNVWLUyz9GwH2-180" value="" style="shape=tableRow;horizontal=0;startSize=0;swimlaneHead=0;swimlaneBody=0;fillColor=none;collapsible=0;dropTarget=0;points=[[0,0.5],[1,0.5]];portConstraint=eastwest;top=0;left=0;right=0;bottom=0;" parent="Wdy_xFRBNVWLUyz9GwH2-167" vertex="1">
          <mxGeometry y="150" width="248" height="30" as="geometry" />
        </mxCell>
        <mxCell id="Wdy_xFRBNVWLUyz9GwH2-181" value="" style="shape=partialRectangle;connectable=0;fillColor=none;top=0;left=0;bottom=0;right=0;editable=1;overflow=hidden;whiteSpace=wrap;html=1;" parent="Wdy_xFRBNVWLUyz9GwH2-180" vertex="1">
          <mxGeometry width="30" height="30" as="geometry">
            <mxRectangle width="30" height="30" as="alternateBounds" />
          </mxGeometry>
        </mxCell>
        <mxCell id="Wdy_xFRBNVWLUyz9GwH2-182" value="Дата начала" style="shape=partialRectangle;connectable=0;fillColor=none;top=0;left=0;bottom=0;right=0;align=left;spacingLeft=6;overflow=hidden;whiteSpace=wrap;html=1;" parent="Wdy_xFRBNVWLUyz9GwH2-180" vertex="1">
          <mxGeometry x="30" width="150" height="30" as="geometry">
            <mxRectangle width="150" height="30" as="alternateBounds" />
          </mxGeometry>
        </mxCell>
        <mxCell id="Wdy_xFRBNVWLUyz9GwH2-183" value="date" style="shape=partialRectangle;connectable=0;fillColor=none;top=0;left=0;bottom=0;right=0;align=left;spacingLeft=6;overflow=hidden;whiteSpace=wrap;html=1;" parent="Wdy_xFRBNVWLUyz9GwH2-180" vertex="1">
          <mxGeometry x="180" width="68" height="30" as="geometry">
            <mxRectangle width="68" height="30" as="alternateBounds" />
          </mxGeometry>
        </mxCell>
        <mxCell id="Wdy_xFRBNVWLUyz9GwH2-184" style="shape=tableRow;horizontal=0;startSize=0;swimlaneHead=0;swimlaneBody=0;fillColor=none;collapsible=0;dropTarget=0;points=[[0,0.5],[1,0.5]];portConstraint=eastwest;top=0;left=0;right=0;bottom=0;" parent="Wdy_xFRBNVWLUyz9GwH2-167" vertex="1">
          <mxGeometry y="180" width="248" height="30" as="geometry" />
        </mxCell>
        <mxCell id="Wdy_xFRBNVWLUyz9GwH2-185" style="shape=partialRectangle;connectable=0;fillColor=none;top=0;left=0;bottom=0;right=0;editable=1;overflow=hidden;whiteSpace=wrap;html=1;" parent="Wdy_xFRBNVWLUyz9GwH2-184" vertex="1">
          <mxGeometry width="30" height="30" as="geometry">
            <mxRectangle width="30" height="30" as="alternateBounds" />
          </mxGeometry>
        </mxCell>
        <mxCell id="Wdy_xFRBNVWLUyz9GwH2-186" value="Дата окончания" style="shape=partialRectangle;connectable=0;fillColor=none;top=0;left=0;bottom=0;right=0;align=left;spacingLeft=6;overflow=hidden;whiteSpace=wrap;html=1;" parent="Wdy_xFRBNVWLUyz9GwH2-184" vertex="1">
          <mxGeometry x="30" width="150" height="30" as="geometry">
            <mxRectangle width="150" height="30" as="alternateBounds" />
          </mxGeometry>
        </mxCell>
        <mxCell id="Wdy_xFRBNVWLUyz9GwH2-187" value="date" style="shape=partialRectangle;connectable=0;fillColor=none;top=0;left=0;bottom=0;right=0;align=left;spacingLeft=6;overflow=hidden;whiteSpace=wrap;html=1;" parent="Wdy_xFRBNVWLUyz9GwH2-184" vertex="1">
          <mxGeometry x="180" width="68" height="30" as="geometry">
            <mxRectangle width="68" height="30" as="alternateBounds" />
          </mxGeometry>
        </mxCell>
        <mxCell id="Wdy_xFRBNVWLUyz9GwH2-196" value="Место" style="shape=table;startSize=30;container=1;collapsible=1;childLayout=tableLayout;fixedRows=1;rowLines=0;fontStyle=1;align=center;resizeLast=1;html=1;fillColor=#fad9d5;strokeColor=#ae4132;" parent="1" vertex="1">
          <mxGeometry x="1055" y="477" width="248" height="150" as="geometry" />
        </mxCell>
        <mxCell id="Wdy_xFRBNVWLUyz9GwH2-197" value="" style="shape=tableRow;horizontal=0;startSize=0;swimlaneHead=0;swimlaneBody=0;fillColor=none;collapsible=0;dropTarget=0;points=[[0,0.5],[1,0.5]];portConstraint=eastwest;top=0;left=0;right=0;bottom=1;" parent="Wdy_xFRBNVWLUyz9GwH2-196" vertex="1">
          <mxGeometry y="30" width="248" height="30" as="geometry" />
        </mxCell>
        <mxCell id="Wdy_xFRBNVWLUyz9GwH2-198" value="PK" style="shape=partialRectangle;connectable=0;fillColor=none;top=0;left=0;bottom=0;right=0;fontStyle=1;overflow=hidden;whiteSpace=wrap;html=1;" parent="Wdy_xFRBNVWLUyz9GwH2-197" vertex="1">
          <mxGeometry width="30" height="30" as="geometry">
            <mxRectangle width="30" height="30" as="alternateBounds" />
          </mxGeometry>
        </mxCell>
        <mxCell id="Wdy_xFRBNVWLUyz9GwH2-199" value="id" style="shape=partialRectangle;connectable=0;fillColor=none;top=0;left=0;bottom=0;right=0;align=left;spacingLeft=6;fontStyle=5;overflow=hidden;whiteSpace=wrap;html=1;" parent="Wdy_xFRBNVWLUyz9GwH2-197" vertex="1">
          <mxGeometry x="30" width="150" height="30" as="geometry">
            <mxRectangle width="150" height="30" as="alternateBounds" />
          </mxGeometry>
        </mxCell>
        <mxCell id="Wdy_xFRBNVWLUyz9GwH2-200" value="int" style="shape=partialRectangle;connectable=0;fillColor=none;top=0;left=0;bottom=0;right=0;align=left;spacingLeft=6;fontStyle=5;overflow=hidden;whiteSpace=wrap;html=1;" parent="Wdy_xFRBNVWLUyz9GwH2-197" vertex="1">
          <mxGeometry x="180" width="68" height="30" as="geometry">
            <mxRectangle width="68" height="30" as="alternateBounds" />
          </mxGeometry>
        </mxCell>
        <mxCell id="Wdy_xFRBNVWLUyz9GwH2-201" value="" style="shape=tableRow;horizontal=0;startSize=0;swimlaneHead=0;swimlaneBody=0;fillColor=none;collapsible=0;dropTarget=0;points=[[0,0.5],[1,0.5]];portConstraint=eastwest;top=0;left=0;right=0;bottom=0;" parent="Wdy_xFRBNVWLUyz9GwH2-196" vertex="1">
          <mxGeometry y="60" width="248" height="30" as="geometry" />
        </mxCell>
        <mxCell id="Wdy_xFRBNVWLUyz9GwH2-202" value="" style="shape=partialRectangle;connectable=0;fillColor=none;top=0;left=0;bottom=0;right=0;editable=1;overflow=hidden;whiteSpace=wrap;html=1;" parent="Wdy_xFRBNVWLUyz9GwH2-201" vertex="1">
          <mxGeometry width="30" height="30" as="geometry">
            <mxRectangle width="30" height="30" as="alternateBounds" />
          </mxGeometry>
        </mxCell>
        <mxCell id="Wdy_xFRBNVWLUyz9GwH2-203" value="Название" style="shape=partialRectangle;connectable=0;fillColor=none;top=0;left=0;bottom=0;right=0;align=left;spacingLeft=6;overflow=hidden;whiteSpace=wrap;html=1;" parent="Wdy_xFRBNVWLUyz9GwH2-201" vertex="1">
          <mxGeometry x="30" width="150" height="30" as="geometry">
            <mxRectangle width="150" height="30" as="alternateBounds" />
          </mxGeometry>
        </mxCell>
        <mxCell id="Wdy_xFRBNVWLUyz9GwH2-204" value="string" style="shape=partialRectangle;connectable=0;fillColor=none;top=0;left=0;bottom=0;right=0;align=left;spacingLeft=6;overflow=hidden;whiteSpace=wrap;html=1;" parent="Wdy_xFRBNVWLUyz9GwH2-201" vertex="1">
          <mxGeometry x="180" width="68" height="30" as="geometry">
            <mxRectangle width="68" height="30" as="alternateBounds" />
          </mxGeometry>
        </mxCell>
        <mxCell id="Wdy_xFRBNVWLUyz9GwH2-205" style="shape=tableRow;horizontal=0;startSize=0;swimlaneHead=0;swimlaneBody=0;fillColor=none;collapsible=0;dropTarget=0;points=[[0,0.5],[1,0.5]];portConstraint=eastwest;top=0;left=0;right=0;bottom=0;" parent="Wdy_xFRBNVWLUyz9GwH2-196" vertex="1">
          <mxGeometry y="90" width="248" height="30" as="geometry" />
        </mxCell>
        <mxCell id="Wdy_xFRBNVWLUyz9GwH2-206" value="" style="shape=partialRectangle;connectable=0;fillColor=none;top=0;left=0;bottom=0;right=0;editable=1;overflow=hidden;whiteSpace=wrap;html=1;" parent="Wdy_xFRBNVWLUyz9GwH2-205" vertex="1">
          <mxGeometry width="30" height="30" as="geometry">
            <mxRectangle width="30" height="30" as="alternateBounds" />
          </mxGeometry>
        </mxCell>
        <mxCell id="Wdy_xFRBNVWLUyz9GwH2-207" value="Адрес" style="shape=partialRectangle;connectable=0;fillColor=none;top=0;left=0;bottom=0;right=0;align=left;spacingLeft=6;overflow=hidden;whiteSpace=wrap;html=1;" parent="Wdy_xFRBNVWLUyz9GwH2-205" vertex="1">
          <mxGeometry x="30" width="150" height="30" as="geometry">
            <mxRectangle width="150" height="30" as="alternateBounds" />
          </mxGeometry>
        </mxCell>
        <mxCell id="Wdy_xFRBNVWLUyz9GwH2-208" value="string" style="shape=partialRectangle;connectable=0;fillColor=none;top=0;left=0;bottom=0;right=0;align=left;spacingLeft=6;overflow=hidden;whiteSpace=wrap;html=1;" parent="Wdy_xFRBNVWLUyz9GwH2-205" vertex="1">
          <mxGeometry x="180" width="68" height="30" as="geometry">
            <mxRectangle width="68" height="30" as="alternateBounds" />
          </mxGeometry>
        </mxCell>
        <mxCell id="Wdy_xFRBNVWLUyz9GwH2-209" style="shape=tableRow;horizontal=0;startSize=0;swimlaneHead=0;swimlaneBody=0;fillColor=none;collapsible=0;dropTarget=0;points=[[0,0.5],[1,0.5]];portConstraint=eastwest;top=0;left=0;right=0;bottom=0;" parent="Wdy_xFRBNVWLUyz9GwH2-196" vertex="1">
          <mxGeometry y="120" width="248" height="30" as="geometry" />
        </mxCell>
        <mxCell id="Wdy_xFRBNVWLUyz9GwH2-210" style="shape=partialRectangle;connectable=0;fillColor=none;top=0;left=0;bottom=0;right=0;editable=1;overflow=hidden;whiteSpace=wrap;html=1;" parent="Wdy_xFRBNVWLUyz9GwH2-209" vertex="1">
          <mxGeometry width="30" height="30" as="geometry">
            <mxRectangle width="30" height="30" as="alternateBounds" />
          </mxGeometry>
        </mxCell>
        <mxCell id="Wdy_xFRBNVWLUyz9GwH2-211" value="Тип" style="shape=partialRectangle;connectable=0;fillColor=none;top=0;left=0;bottom=0;right=0;align=left;spacingLeft=6;overflow=hidden;whiteSpace=wrap;html=1;" parent="Wdy_xFRBNVWLUyz9GwH2-209" vertex="1">
          <mxGeometry x="30" width="150" height="30" as="geometry">
            <mxRectangle width="150" height="30" as="alternateBounds" />
          </mxGeometry>
        </mxCell>
        <mxCell id="Wdy_xFRBNVWLUyz9GwH2-212" value="enum" style="shape=partialRectangle;connectable=0;fillColor=none;top=0;left=0;bottom=0;right=0;align=left;spacingLeft=6;overflow=hidden;whiteSpace=wrap;html=1;" parent="Wdy_xFRBNVWLUyz9GwH2-209" vertex="1">
          <mxGeometry x="180" width="68" height="30" as="geometry">
            <mxRectangle width="68" height="30" as="alternateBounds" />
          </mxGeometry>
        </mxCell>
        <mxCell id="Wdy_xFRBNVWLUyz9GwH2-221" value="" style="edgeStyle=orthogonalEdgeStyle;fontSize=12;html=1;endArrow=ERoneToMany;startArrow=ERmandOne;rounded=0;exitX=0;exitY=0.5;exitDx=0;exitDy=0;entryX=0;entryY=0.5;entryDx=0;entryDy=0;" parent="1" source="Wdy_xFRBNVWLUyz9GwH2-197" target="Wdy_xFRBNVWLUyz9GwH2-188" edge="1">
          <mxGeometry width="100" height="100" relative="1" as="geometry">
            <mxPoint x="1026.5" y="505" as="sourcePoint" />
            <mxPoint x="601.5" y="545" as="targetPoint" />
            <Array as="points">
              <mxPoint x="1027" y="522" />
              <mxPoint x="1027" y="258" />
            </Array>
          </mxGeometry>
        </mxCell>
        <mxCell id="Wdy_xFRBNVWLUyz9GwH2-222" value="" style="edgeStyle=orthogonalEdgeStyle;fontSize=12;html=1;endArrow=ERoneToMany;startArrow=ERmandOne;rounded=0;exitX=1;exitY=0.5;exitDx=0;exitDy=0;entryX=0;entryY=0.5;entryDx=0;entryDy=0;" parent="1" source="Wdy_xFRBNVWLUyz9GwH2-65" target="Wdy_xFRBNVWLUyz9GwH2-176" edge="1">
          <mxGeometry width="100" height="100" relative="1" as="geometry">
            <mxPoint x="1065" y="532" as="sourcePoint" />
            <mxPoint x="1069" y="268" as="targetPoint" />
            <Array as="points">
              <mxPoint x="1027" y="195" />
              <mxPoint x="1027" y="228" />
            </Array>
          </mxGeometry>
        </mxCell>
        <mxCell id="Wdy_xFRBNVWLUyz9GwH2-224" value="Посещение" style="shape=table;startSize=30;container=1;collapsible=1;childLayout=tableLayout;fixedRows=1;rowLines=0;fontStyle=1;align=center;resizeLast=1;html=1;fillColor=#fad9d5;strokeColor=#ae4132;" parent="1" vertex="1">
          <mxGeometry x="1055" y="713" width="260" height="180" as="geometry" />
        </mxCell>
        <mxCell id="Wdy_xFRBNVWLUyz9GwH2-225" value="" style="shape=tableRow;horizontal=0;startSize=0;swimlaneHead=0;swimlaneBody=0;fillColor=none;collapsible=0;dropTarget=0;points=[[0,0.5],[1,0.5]];portConstraint=eastwest;top=0;left=0;right=0;bottom=1;" parent="Wdy_xFRBNVWLUyz9GwH2-224" vertex="1">
          <mxGeometry y="30" width="260" height="30" as="geometry" />
        </mxCell>
        <mxCell id="Wdy_xFRBNVWLUyz9GwH2-226" value="PK" style="shape=partialRectangle;connectable=0;fillColor=none;top=0;left=0;bottom=0;right=0;fontStyle=1;overflow=hidden;whiteSpace=wrap;html=1;" parent="Wdy_xFRBNVWLUyz9GwH2-225" vertex="1">
          <mxGeometry width="30" height="30" as="geometry">
            <mxRectangle width="30" height="30" as="alternateBounds" />
          </mxGeometry>
        </mxCell>
        <mxCell id="Wdy_xFRBNVWLUyz9GwH2-227" value="id" style="shape=partialRectangle;connectable=0;fillColor=none;top=0;left=0;bottom=0;right=0;align=left;spacingLeft=6;fontStyle=5;overflow=hidden;whiteSpace=wrap;html=1;" parent="Wdy_xFRBNVWLUyz9GwH2-225" vertex="1">
          <mxGeometry x="30" width="150" height="30" as="geometry">
            <mxRectangle width="150" height="30" as="alternateBounds" />
          </mxGeometry>
        </mxCell>
        <mxCell id="Wdy_xFRBNVWLUyz9GwH2-228" value="int" style="shape=partialRectangle;connectable=0;fillColor=none;top=0;left=0;bottom=0;right=0;align=left;spacingLeft=6;fontStyle=5;overflow=hidden;whiteSpace=wrap;html=1;" parent="Wdy_xFRBNVWLUyz9GwH2-225" vertex="1">
          <mxGeometry x="180" width="80" height="30" as="geometry">
            <mxRectangle width="80" height="30" as="alternateBounds" />
          </mxGeometry>
        </mxCell>
        <mxCell id="Wdy_xFRBNVWLUyz9GwH2-233" value="" style="shape=tableRow;horizontal=0;startSize=0;swimlaneHead=0;swimlaneBody=0;fillColor=none;collapsible=0;dropTarget=0;points=[[0,0.5],[1,0.5]];portConstraint=eastwest;top=0;left=0;right=0;bottom=0;" parent="Wdy_xFRBNVWLUyz9GwH2-224" vertex="1">
          <mxGeometry y="60" width="260" height="30" as="geometry" />
        </mxCell>
        <mxCell id="Wdy_xFRBNVWLUyz9GwH2-234" value="" style="shape=partialRectangle;connectable=0;fillColor=none;top=0;left=0;bottom=0;right=0;editable=1;overflow=hidden;whiteSpace=wrap;html=1;" parent="Wdy_xFRBNVWLUyz9GwH2-233" vertex="1">
          <mxGeometry width="30" height="30" as="geometry">
            <mxRectangle width="30" height="30" as="alternateBounds" />
          </mxGeometry>
        </mxCell>
        <mxCell id="Wdy_xFRBNVWLUyz9GwH2-235" value="Дата начала" style="shape=partialRectangle;connectable=0;fillColor=none;top=0;left=0;bottom=0;right=0;align=left;spacingLeft=6;overflow=hidden;whiteSpace=wrap;html=1;" parent="Wdy_xFRBNVWLUyz9GwH2-233" vertex="1">
          <mxGeometry x="30" width="150" height="30" as="geometry">
            <mxRectangle width="150" height="30" as="alternateBounds" />
          </mxGeometry>
        </mxCell>
        <mxCell id="Wdy_xFRBNVWLUyz9GwH2-236" value="date" style="shape=partialRectangle;connectable=0;fillColor=none;top=0;left=0;bottom=0;right=0;align=left;spacingLeft=6;overflow=hidden;whiteSpace=wrap;html=1;" parent="Wdy_xFRBNVWLUyz9GwH2-233" vertex="1">
          <mxGeometry x="180" width="80" height="30" as="geometry">
            <mxRectangle width="80" height="30" as="alternateBounds" />
          </mxGeometry>
        </mxCell>
        <mxCell id="Wdy_xFRBNVWLUyz9GwH2-237" value="" style="shape=tableRow;horizontal=0;startSize=0;swimlaneHead=0;swimlaneBody=0;fillColor=none;collapsible=0;dropTarget=0;points=[[0,0.5],[1,0.5]];portConstraint=eastwest;top=0;left=0;right=0;bottom=0;" parent="Wdy_xFRBNVWLUyz9GwH2-224" vertex="1">
          <mxGeometry y="90" width="260" height="30" as="geometry" />
        </mxCell>
        <mxCell id="Wdy_xFRBNVWLUyz9GwH2-238" value="" style="shape=partialRectangle;connectable=0;fillColor=none;top=0;left=0;bottom=0;right=0;editable=1;overflow=hidden;whiteSpace=wrap;html=1;" parent="Wdy_xFRBNVWLUyz9GwH2-237" vertex="1">
          <mxGeometry width="30" height="30" as="geometry">
            <mxRectangle width="30" height="30" as="alternateBounds" />
          </mxGeometry>
        </mxCell>
        <mxCell id="Wdy_xFRBNVWLUyz9GwH2-239" value="Дата конца" style="shape=partialRectangle;connectable=0;fillColor=none;top=0;left=0;bottom=0;right=0;align=left;spacingLeft=6;overflow=hidden;whiteSpace=wrap;html=1;" parent="Wdy_xFRBNVWLUyz9GwH2-237" vertex="1">
          <mxGeometry x="30" width="150" height="30" as="geometry">
            <mxRectangle width="150" height="30" as="alternateBounds" />
          </mxGeometry>
        </mxCell>
        <mxCell id="Wdy_xFRBNVWLUyz9GwH2-240" value="date" style="shape=partialRectangle;connectable=0;fillColor=none;top=0;left=0;bottom=0;right=0;align=left;spacingLeft=6;overflow=hidden;whiteSpace=wrap;html=1;" parent="Wdy_xFRBNVWLUyz9GwH2-237" vertex="1">
          <mxGeometry x="180" width="80" height="30" as="geometry">
            <mxRectangle width="80" height="30" as="alternateBounds" />
          </mxGeometry>
        </mxCell>
        <mxCell id="Wdy_xFRBNVWLUyz9GwH2-241" style="shape=tableRow;horizontal=0;startSize=0;swimlaneHead=0;swimlaneBody=0;fillColor=none;collapsible=0;dropTarget=0;points=[[0,0.5],[1,0.5]];portConstraint=eastwest;top=0;left=0;right=0;bottom=0;" parent="Wdy_xFRBNVWLUyz9GwH2-224" vertex="1">
          <mxGeometry y="120" width="260" height="30" as="geometry" />
        </mxCell>
        <mxCell id="Wdy_xFRBNVWLUyz9GwH2-242" style="shape=partialRectangle;connectable=0;fillColor=none;top=0;left=0;bottom=0;right=0;editable=1;overflow=hidden;whiteSpace=wrap;html=1;" parent="Wdy_xFRBNVWLUyz9GwH2-241" vertex="1">
          <mxGeometry width="30" height="30" as="geometry">
            <mxRectangle width="30" height="30" as="alternateBounds" />
          </mxGeometry>
        </mxCell>
        <mxCell id="Wdy_xFRBNVWLUyz9GwH2-243" value="Посетитель" style="shape=partialRectangle;connectable=0;fillColor=none;top=0;left=0;bottom=0;right=0;align=left;spacingLeft=6;overflow=hidden;whiteSpace=wrap;html=1;" parent="Wdy_xFRBNVWLUyz9GwH2-241" vertex="1">
          <mxGeometry x="30" width="150" height="30" as="geometry">
            <mxRectangle width="150" height="30" as="alternateBounds" />
          </mxGeometry>
        </mxCell>
        <mxCell id="Wdy_xFRBNVWLUyz9GwH2-244" value="string" style="shape=partialRectangle;connectable=0;fillColor=none;top=0;left=0;bottom=0;right=0;align=left;spacingLeft=6;overflow=hidden;whiteSpace=wrap;html=1;" parent="Wdy_xFRBNVWLUyz9GwH2-241" vertex="1">
          <mxGeometry x="180" width="80" height="30" as="geometry">
            <mxRectangle width="80" height="30" as="alternateBounds" />
          </mxGeometry>
        </mxCell>
        <mxCell id="Wdy_xFRBNVWLUyz9GwH2-245" style="shape=tableRow;horizontal=0;startSize=0;swimlaneHead=0;swimlaneBody=0;fillColor=none;collapsible=0;dropTarget=0;points=[[0,0.5],[1,0.5]];portConstraint=eastwest;top=0;left=0;right=0;bottom=0;" parent="Wdy_xFRBNVWLUyz9GwH2-224" vertex="1">
          <mxGeometry y="150" width="260" height="30" as="geometry" />
        </mxCell>
        <mxCell id="Wdy_xFRBNVWLUyz9GwH2-246" style="shape=partialRectangle;connectable=0;fillColor=none;top=0;left=0;bottom=0;right=0;editable=1;overflow=hidden;whiteSpace=wrap;html=1;" parent="Wdy_xFRBNVWLUyz9GwH2-245" vertex="1">
          <mxGeometry width="30" height="30" as="geometry">
            <mxRectangle width="30" height="30" as="alternateBounds" />
          </mxGeometry>
        </mxCell>
        <mxCell id="Wdy_xFRBNVWLUyz9GwH2-247" value="Тип" style="shape=partialRectangle;connectable=0;fillColor=none;top=0;left=0;bottom=0;right=0;align=left;spacingLeft=6;overflow=hidden;whiteSpace=wrap;html=1;" parent="Wdy_xFRBNVWLUyz9GwH2-245" vertex="1">
          <mxGeometry x="30" width="150" height="30" as="geometry">
            <mxRectangle width="150" height="30" as="alternateBounds" />
          </mxGeometry>
        </mxCell>
        <mxCell id="Wdy_xFRBNVWLUyz9GwH2-248" value="enum" style="shape=partialRectangle;connectable=0;fillColor=none;top=0;left=0;bottom=0;right=0;align=left;spacingLeft=6;overflow=hidden;whiteSpace=wrap;html=1;" parent="Wdy_xFRBNVWLUyz9GwH2-245" vertex="1">
          <mxGeometry x="180" width="80" height="30" as="geometry">
            <mxRectangle width="80" height="30" as="alternateBounds" />
          </mxGeometry>
        </mxCell>
        <mxCell id="Wdy_xFRBNVWLUyz9GwH2-249" value="" style="edgeStyle=orthogonalEdgeStyle;fontSize=12;html=1;endArrow=ERoneToMany;startArrow=ERmandOne;rounded=0;exitX=1;exitY=0.5;exitDx=0;exitDy=0;entryX=1;entryY=0.5;entryDx=0;entryDy=0;" parent="1" source="Wdy_xFRBNVWLUyz9GwH2-168" target="Wdy_xFRBNVWLUyz9GwH2-225" edge="1">
          <mxGeometry width="100" height="100" relative="1" as="geometry">
            <mxPoint x="1065" y="532" as="sourcePoint" />
            <mxPoint x="1325" y="763" as="targetPoint" />
            <Array as="points">
              <mxPoint x="1333" y="198" />
              <mxPoint x="1333" y="758" />
            </Array>
          </mxGeometry>
        </mxCell>
      </root>
    </mxGraphModel>
  </diagram>
</mxfile>
